<svg id="electon_x5F_papers" enable-background="new 0 0 300 300"  fill="#fff" height="512" viewBox="0 0 300 300" width="512" xmlns="http://www.w3.org/2000/svg"><path d="m229.497 144.144v-91.274c0-2.211-1.789-4-4-4h-20.09l-3.227-12.762c-.262-1.027-.918-1.91-1.832-2.453-.906-.547-2-.711-3.027-.445l-61.935 15.66h-65.889c-2.211 0-4 1.789-4 4v13.671l-16.98 4.293c-1.027.262-1.91.918-2.453 1.832-.547.91-.703 2-.445 3.027l19.879 78.621v98.758c0 2.211 1.789 4 4 4h21.982l2.831 11.195c.262 1.027.918 1.91 1.832 2.453.621.375 1.332.566 2.047.566.328 0 .656-.039.98-.121l55.74-14.094h70.588c2.211 0 4-1.789 4-4v-14.859l18.477-4.672c2.141-.543 3.438-2.719 2.898-4.859zm-8-87.274v55.635l-14.067-55.635zm-148 0h30.25l-30.25 7.648zm0 192.203v-63.118l15.959 63.118zm148 0h-34.949l34.949-8.837zm-120.41 13.355-46.73-184.816 82.27-20.801 58.777-14.863 46.73 184.816z"/><path d="m123.65 149.092-7.141-28.254c-1.785-7.036-7.141-12.188-13.626-14.164.019-.031.045-.055.063-.086 2.402-4.023 3.09-8.742 1.941-13.285s-4-8.367-8.023-10.766c-4.023-2.402-8.73-3.09-13.285-1.941-4.543 1.148-8.367 3.996-10.766 8.02-2.402 4.027-3.09 8.746-1.941 13.289s3.996 8.367 8.023 10.766c.03.018.062.029.092.047-4.766 4.82-7.029 11.896-5.252 18.934l7.145 28.258c.262 1.027.918 1.91 1.832 2.453.621.375 1.332.566 2.047.566.328 0 .656-.039.98-.121l35.012-8.855c2.141-.544 3.438-2.72 2.899-4.861zm-45.02-49.148c-.625-2.473-.254-5.039 1.055-7.227 1.305-2.191 3.383-3.738 5.855-4.363.781-.199 1.574-.297 2.359-.297 1.695 0 3.371.457 4.867 1.352 2.191 1.305 3.738 3.383 4.363 5.855s.254 5.039-1.055 7.227c-1.305 2.191-3.383 3.738-5.855 4.363-2.469.625-5.039.254-7.227-1.055-2.19-1.304-3.737-3.382-4.362-5.855zm9.027 54.125-6.164-24.379c-1.621-6.414 2.277-12.953 8.691-14.574l3.992-1.008c.98-.25 1.965-.367 2.938-.367 5.363 0 10.262 3.629 11.637 9.059l6.16 24.375z"/><path d="m116.298 85.104c.324 0 .656-.039.984-.121l30.637-7.746c2.141-.543 3.438-2.719 2.898-4.859-.543-2.141-2.715-3.434-4.859-2.898l-30.637 7.746c-2.141.543-3.438 2.719-2.898 4.859.461 1.812 2.086 3.019 3.875 3.019z"/><path d="m193.072 80.85-69.437 17.555c-2.141.543-3.438 2.719-2.898 4.859.461 1.812 2.086 3.02 3.875 3.02.324 0 .656-.039.984-.121l69.437-17.555c2.141-.543 3.438-2.719 2.898-4.859-.543-2.141-2.723-3.426-4.859-2.899z"/><path d="m126.267 125.147c.461 1.812 2.086 3.02 3.875 3.02.324 0 .656-.039.984-.121l69.438-17.555c2.141-.543 3.438-2.719 2.898-4.859-.547-2.141-2.719-3.422-4.859-2.898l-69.438 17.555c-2.14.542-3.437 2.717-2.898 4.858z"/><path d="m131.802 147.034c.461 1.812 2.086 3.02 3.875 3.02.324 0 .656-.039.984-.121l69.438-17.559c2.141-.543 3.438-2.719 2.898-4.859-.543-2.141-2.715-3.434-4.859-2.898l-69.438 17.557c-2.14.543-3.437 2.719-2.898 4.86z"/><path d="m86.415 181.792c.461 1.812 2.086 3.02 3.875 3.02.324 0 .656-.039.984-.121l120.355-30.434c2.141-.543 3.438-2.719 2.898-4.859-.543-2.141-2.719-3.434-4.859-2.898l-120.354 30.432c-2.141.543-3.438 2.719-2.899 4.86z"/><path d="m91.947 203.674c.461 1.812 2.086 3.02 3.875 3.02.324 0 .656-.039.984-.121l120.359-30.434c2.141-.543 3.438-2.719 2.898-4.859-.547-2.141-2.719-3.434-4.859-2.898l-120.359 30.433c-2.141.543-3.438 2.719-2.898 4.859z"/><path d="m97.482 225.557c.461 1.812 2.086 3.02 3.875 3.02.324 0 .656-.039.984-.121l120.355-30.434c2.141-.543 3.438-2.719 2.898-4.859-.543-2.141-2.711-3.434-4.859-2.898l-120.355 30.433c-2.141.543-3.437 2.719-2.898 4.859z"/><path d="m103.013 247.44c.461 1.812 2.086 3.02 3.875 3.02.324 0 .656-.039.984-.121l120.359-30.434c2.141-.543 3.438-2.719 2.898-4.859-.543-2.141-2.723-3.43-4.859-2.898l-120.359 30.434c-2.14.542-3.437 2.717-2.898 4.858z"/><path d="m263.868 84.354c-1.562-1.562-4.094-1.562-5.656 0s-1.562 4.094 0 5.656l6.777 6.781c.781.781 1.805 1.172 2.828 1.172s2.047-.391 2.828-1.172c1.562-1.562 1.562-4.094 0-5.656z"/><path d="m248.052 68.538c-1.562-1.562-4.094-1.562-5.656 0s-1.562 4.094 0 5.656l6.777 6.781c.781.781 1.805 1.172 2.828 1.172s2.047-.391 2.828-1.172c1.563-1.562 1.563-4.094 0-5.656z"/><path d="m261.79 81.397c1.023 0 2.047-.391 2.828-1.172l6.836-6.836c1.562-1.562 1.562-4.094 0-5.656s-4.094-1.562-5.656 0l-6.836 6.836c-1.562 1.562-1.562 4.094 0 5.656.781.781 1.805 1.172 2.828 1.172z"/><path d="m249.173 84.354-6.777 6.781c-1.562 1.562-1.562 4.094 0 5.656.781.781 1.805 1.172 2.828 1.172s2.047-.391 2.828-1.172l6.777-6.781c1.563-1.562 1.563-4.094 0-5.656-1.562-1.562-4.093-1.562-5.656 0z"/><path d="m39.697 53.397c4.41 0 8.684-2.367 10.902-6.52 1.555-2.906 1.883-6.242.93-9.395-.957-3.156-3.082-5.75-5.988-7.305-2.91-1.559-6.254-1.887-9.398-.926-3.156.953-5.75 3.082-7.305 5.988s-1.883 6.242-.926 9.398c.953 3.152 3.082 5.746 5.988 7.301 1.847.99 3.836 1.459 5.797 1.459zm-3.805-14.383c.781-1.461 2.285-2.293 3.836-2.293.688 0 1.391.164 2.039.512 2.109 1.129 2.906 3.762 1.777 5.871-.547 1.023-1.457 1.773-2.566 2.109-1.109.332-2.281.219-3.305-.328s-1.77-1.457-2.109-2.566c-.336-1.109-.219-2.285.328-3.305z"/><path d="m51.521 189.831c-1.562-1.562-4.094-1.562-5.656 0l-3.068 3.068-3.068-3.068c-1.562-1.562-4.094-1.562-5.656 0s-1.562 4.094 0 5.656l3.068 3.068-3.068 3.068c-1.562 1.562-1.562 4.094 0 5.656.781.781 1.805 1.172 2.828 1.172s2.047-.391 2.828-1.172l3.068-3.068 3.068 3.068c.781.781 1.805 1.172 2.828 1.172s2.047-.391 2.828-1.172c1.562-1.562 1.562-4.094 0-5.656l-3.068-3.068 3.068-3.068c1.562-1.563 1.562-4.094 0-5.656z"/></svg>