<svg width="626" height="690" viewBox="0 0 626 690" fill="none" xmlns="http://www.w3.org/2000/svg">
<path d="M626 327C623.32 331.19 618.54 333.13 615.5 337.15C612.88 340.61 607.12 339.77 605.35 335.95C603.94 332.95 602.1 332.95 599.51 333.02C591.744 333.113 589.714 329.757 593.42 322.95C593.785 322.415 593.958 321.773 593.913 321.127C593.868 320.481 593.606 319.869 593.17 319.39C591.52 317.01 591.9 314.63 593.54 312.46C594.299 311.333 595.417 310.497 596.712 310.089C598.007 309.68 599.403 309.723 600.67 310.21C603.88 311.54 605.74 310.67 607.87 308.33C608.878 307.196 610.189 306.371 611.648 305.953C613.107 305.535 614.654 305.541 616.11 305.97C617.326 306.383 618.346 307.229 618.977 308.347C619.608 309.465 619.805 310.776 619.53 312.03C618.35 317.77 621.91 319.42 625.99 321.03L626 327ZM599.39 312.46C595.55 312.46 593.83 315.05 595.91 318.05C597.57 320.45 597.19 321.81 595.28 323.5C593.61 324.98 592.11 326.78 593.46 329.13C594.81 331.48 597.24 331.44 599.27 330.78C603.09 329.54 605.52 329.62 606.99 334.24C608.06 337.61 612.08 338.11 612.99 335.3C614.39 330.77 617.99 329.76 621.3 327.85C624.61 325.94 624.77 321.62 621.51 320.92C616.51 319.85 617.09 317.25 617.63 313.53C618.25 309.29 615.63 307.78 611.74 309.73C610.827 310.132 610.001 310.71 609.31 311.43C607.31 313.84 605.13 315.03 602.09 313.05C601.235 312.686 600.319 312.486 599.39 312.46V312.46Z" fill="url(#paint0_linear)"/>
<path d="M0 113C1.56 112.12 2.47 110.17 4.48 110.1C6.49 110.03 6.79 108.86 6.93 107.17C7.2 103.92 7.93 100.7 11.7 99.83C15.1 99.04 16.91 101.36 18.22 104.04C19.07 105.78 20.16 105.61 21.85 105.35C27.15 104.53 29.6 107.35 28.47 112.66C27.8375 114.846 27.5342 117.114 27.57 119.39C27.6744 120.35 27.5267 121.32 27.1414 122.205C26.7562 123.09 26.1467 123.86 25.3733 124.437C24.5998 125.015 23.689 125.381 22.7309 125.499C21.7728 125.617 20.8005 125.483 19.91 125.11C17.49 124.11 16.5 125.11 14.91 126.33C10.33 129.79 6.65 128.56 5.04 123.08C4.25 120.39 1.29 120.08 0.04 117.99L0 113ZM21.44 123.86C24.15 123.63 25.44 122.1 24.44 119.86C23.29 117.21 23.83 115.28 25.44 113.12C26.0023 112.382 26.3151 111.484 26.3331 110.556C26.3511 109.629 26.0733 108.719 25.54 107.96C25.1469 107.401 24.5614 107.006 23.8954 106.851C23.2294 106.696 22.5297 106.792 21.93 107.12C18.93 108.95 17.99 107.32 16.93 104.99C16.24 103.5 15.18 101.89 13.26 102.09C11.08 102.32 10.39 104.3 10.07 106.09C9.48 109.41 8.45 112.03 4.51 112.49C3.84102 112.582 3.22478 112.903 2.76685 113.4C2.30893 113.896 2.03782 114.536 2 115.21C1.93056 115.536 1.92765 115.872 1.99144 116.199C2.05524 116.525 2.18442 116.836 2.37123 117.111C2.55803 117.387 2.79861 117.622 3.07851 117.802C3.35841 117.982 3.67185 118.104 4 118.16C6.33 118.73 7.19 120.04 6.82 122.49C6.58 124.1 6.64 126.14 8.48 126.82C9.36883 127.119 10.3355 127.089 11.2038 126.734C12.072 126.38 12.7841 125.725 13.21 124.89C14.9 122.09 16.69 120.69 19.68 123.22C20.224 123.536 20.82 123.753 21.44 123.86V123.86Z" fill="url(#paint1_linear)"/>
<path d="M25 690C35.84 664.28 49.35 639.85 61.84 614.84L58.93 621.19L59.68 621.58L70.79 603.83L71.17 604.16C68.36 609.41 65.83 614.84 62.68 619.89C49.75 640.67 38.9 662.52 28.76 684.75C27.94 686.55 26.93 688.25 26 690H25Z" fill="url(#paint2_linear)"/>
<path d="M345.88 21C344.88 17.7 343.66 14.44 342.81 11.09C342.38 9.40003 342.96 7.23003 344.87 7.19003C349.87 7.08003 351.22 2.71003 354.01 0.0300293H358.01C360.01 3.36003 360.84 7.39003 365.74 8.40003C367.81 8.83003 367.96 12.68 366.74 13.56C363.06 16.12 364.87 24.1 359.11 22.98C355.27 22.24 351.61 22.35 347.88 21.98C347.15 21.92 346.47 21.22 345.78 20.82C347.27 20.76 349.09 21.23 350.16 20.53C352.85 18.79 354.81 18.31 357.33 21.03C358.91 22.74 361.07 21.78 361.08 19.32C361.09 16.86 362.27 15.55 363.85 13.96C366.37 11.43 365.48 8.96003 361.93 8.77003C359.42 8.66003 359.29 7.39003 359.11 5.68003C358.93 3.97003 358.29 2.62003 356.61 2.35003C355.929 2.29193 355.248 2.46849 354.68 2.85043C354.113 3.23236 353.693 3.79675 353.49 4.45003C352.29 7.26003 350.37 8.39003 347.28 8.23003C345.44 8.13003 343.41 9.82003 344.92 11.33C348.07 14.54 345.64 17.79 345.88 21Z" fill="url(#paint3_linear)"/>
<path d="M175.23 458.23C165.577 457.525 156.073 455.458 147 452.09C133.66 447.15 130.85 438.82 138.42 426.77C141.78 421.41 145.42 416.16 151.18 413C152.61 412.22 153.43 411.45 151.86 410.13C137.8 398.36 140.08 382.74 142.46 367.56C147.406 335.822 155.331 304.621 166.13 274.37C170.06 263.37 175.96 253.27 181.02 242.79C182.49 239.79 183.23 237.79 179.09 236.07C174.23 234.07 171.82 229.35 170.25 224.49C160.87 195.37 183.12 156.27 219.69 158C226.724 158.163 233.569 160.316 239.43 164.21C241.51 165.64 242.43 165.88 243.83 163.27C279.24 95.09 373.95 88.6 423.4 140.27C428.59 145.68 428.66 145.61 433.33 139.58C438.57 132.81 444.14 126.42 452.33 123.07C453.048 122.868 453.671 122.417 454.087 121.798C454.503 121.178 454.685 120.431 454.6 119.69C454.596 118.019 454.696 116.349 454.9 114.69C456.27 100.69 464.62 93.33 478.55 94.16C481.49 94.34 483.14 94.16 484.49 90.85C487.49 83.35 500.9 76.74 508.83 78.18C509.96 78.39 511.53 78.56 512.06 79.33C515.5 84.33 520.71 84 525.89 84.93C532.74 86.16 538.28 90.04 539.03 97.93C539.22 99.93 540.41 100.24 541.83 100.79C549.73 103.86 551.34 106.94 548.99 115.31C548.39 117.44 549.41 118.61 550.56 119.63C558.75 126.89 550.62 140.63 541.83 140.96C539.35 141.05 538.53 142.17 537.58 144.17C531.45 157.1 521.08 164.61 507.15 167.31C505.52 167.63 504.39 167.85 504.15 169.83C503.15 177.5 499.08 183.83 495.22 190.25C467.223 236.584 435.936 280.847 401.6 322.7C395.69 329.9 391.93 338.18 388.08 346.49C383.74 355.87 379.28 365.19 372.55 373.16C371.04 374.95 371.21 376.65 371.55 378.72C374.275 393.86 373.488 409.423 369.25 424.21C364.84 439.65 355.95 451.45 343.18 461.46C326.81 474.21 309 480.23 288.57 480C279.83 479.9 279.87 480.15 276.65 488.3C274.81 492.95 273.18 498.21 267.02 498.46C261.02 498.7 257.86 494.29 255.2 489.75C253.901 487.426 252.874 484.959 252.14 482.4C251.37 479.89 251.03 477.24 250.41 474.21C247.65 475.41 246.41 477.83 245.12 479.94C241.068 486.258 236.154 491.98 230.52 496.94C215.35 510.62 199.46 523.24 181.17 532.55C179.38 533.445 177.809 534.723 176.57 536.295C175.331 537.866 174.453 539.691 174 541.64C172.42 547.677 168.597 552.885 163.31 556.2C156.53 560.54 150 559.03 145.94 551.9C140.68 542.66 140.76 532.85 143.58 522.9C145.45 516.27 149.08 510.48 152.49 504.55C150.58 503.63 149.12 505.02 147.49 505.01C143.78 505.01 141.34 505.67 140.49 510.42C140.044 512.764 138.809 514.885 136.989 516.428C135.169 517.971 132.875 518.844 130.49 518.9C121.66 519.24 117.12 524.35 113.71 531.61C110.43 538.61 107.46 545.76 102.26 551.67C107.1 542 111 532 116.9 523C119.25 519.39 122.9 518.48 126.83 518.15C131.01 517.79 134.59 516.37 137.26 513.03C138.67 511.27 139.74 509.41 138.67 507.09C137.21 503.96 139.19 503.51 141.43 503.84C150.63 505.2 155.43 500.31 159.06 492.59C162.78 484.59 167.31 477.01 171.33 469.16C173.05 465.75 174.78 462.31 175.23 458.23ZM184.42 219.88C188.33 216.21 186.1 211.88 184.29 208.88C182.48 205.88 179.41 209.45 176.87 209.98C176.537 210.01 176.202 210.01 175.87 209.98C177.5 207.9 179.81 207.21 182.23 206.43C185.84 205.27 184.23 201.72 184.91 199.24C185.36 197.64 184.44 196.71 182.78 196.7C179.78 196.7 175.97 196.63 174.64 199.28C172.95 202.64 172.03 206.75 173.64 210.7C173.72 210.89 174.58 210.76 175.08 210.78C170.83 216.7 174.17 221.87 176.38 227.85L180.92 222.47C180.609 223.584 180.155 224.653 179.57 225.65C176.27 229.9 179.34 232.01 182.42 233.8C186.57 236.22 185.68 231.56 187.01 230.13C188.34 228.7 188.85 227 189.86 225.48C191.02 223.73 191.86 222.25 189.97 220.25C188.08 218.25 186.4 218.28 184.42 219.88V219.88ZM188.6 185.63C191.09 186.27 192.12 184.22 193.46 182.89C198.552 177.559 205.318 174.135 212.63 173.19C215.34 172.86 216.91 172.11 215.83 169.36C214.83 166.89 216.75 162.36 211.31 162.73C204.03 163.22 203.19 164.43 205.84 171.26C205.91 171.43 205.6 171.75 205.45 172.02C203.92 170.96 203.85 169.15 203.22 167.66C202.83 166.74 202.72 165.51 201.35 165.94C197.67 167.08 194.04 168.63 191.68 171.69C191.05 172.51 191.53 173.4 189.68 173.88C185.75 174.88 183.14 178.56 182.43 182.05C181.78 185.28 186.43 183.45 188.09 185.05C188.31 185.27 188.51 185.52 188.74 185.77C185.74 186.42 182.49 182.86 179.9 185.94C177.336 188.829 175.886 192.538 175.81 196.4C178.05 195.95 179.81 195.48 181.62 195.25C186.32 194.68 189.29 190.63 188.6 185.63V185.63ZM145.33 435.24C145.51 434.24 145.95 435.09 146.33 435.12C145.757 436.976 145.089 438.802 144.33 440.59C142.33 444.67 143.6 446.74 147.84 448.32C156.211 451.567 165.133 453.157 174.11 453C175.7 453 177.48 453.4 178.11 451C178.74 448.45 179.65 446 180.57 443C175.43 443.39 170.83 441.45 166.31 442C161.97 442.51 158.41 440.82 154.59 439.82C151.47 439 148 438.42 146.29 435.01C152.906 438.541 160.212 440.588 167.7 441.01C172.13 441.29 177.87 443.11 180.7 441.01C183.84 438.7 184.14 432.71 186.01 428.47C187.63 424.8 186.35 423.65 182.76 423.12C175.36 422.01 167.99 420.57 161.4 416.73C154.81 412.89 154.14 412.96 148.81 418.52C147.537 419.835 146.351 421.231 145.26 422.7C140.35 429.38 140.37 429.4 145.5 435.21C143.05 435.13 141.32 430.71 139.5 432.64C136.93 435.35 137.58 439.43 139.3 442.88C139.469 443.356 139.775 443.772 140.178 444.076C140.582 444.38 141.066 444.559 141.57 444.59L145.33 435.24ZM347.1 292.92C349.91 296.31 353.26 297.43 357.66 296.15C361.48 295.04 365.54 294.81 369.39 293.79C375.39 292.18 381.65 290.94 386.99 287.32C379.28 287.72 371.74 289.25 364.05 288.96C359.32 288.78 354.36 287.72 353.21 282.68C351.78 276.37 347.59 276.29 342.88 276.29C340.38 276.29 337.88 276.59 335.39 276.54C312.68 276.04 293.21 268.54 281.66 247.95C271.83 230.44 266.2 211.46 270.02 190.9C276.77 154.53 295.02 127.19 330.89 113.74C332.27 113.22 334.2 113.29 334.98 111.1C300.56 114.37 271.66 127.25 252.72 157.3C241.09 175.76 236.83 195.98 240.87 218.14C251.87 209.27 259.34 210.19 266.87 220.85C270.188 225.271 272.425 230.409 273.4 235.85C275.03 246.35 275.4 256.58 263.88 262.65C285.95 286.55 313.45 296.45 345.02 296.78C348.8 296.78 347.28 294.78 346.94 293.03L347.1 292.92ZM182.69 256.92C180.41 253.92 179.69 256.18 178.75 258.04C168.95 278.37 162.75 299.93 157 321.66C156.36 324.08 157.17 325.33 159.51 326.14C164.43 327.86 167.43 326.14 168.82 320.42C170.65 312.89 171.2 304.98 175.38 298.14C173.71 305.21 171.95 312.27 170.38 319.36C168.56 327.62 166.51 329.18 158.38 327.36C156.13 326.85 155.81 327.56 154.94 329.36C152.59 334.22 157.79 333.09 159.05 335.01C155.16 334.01 153.18 335.54 152.93 339.57C152.84 341.02 152.1 342.44 152 343.89C151.89 345.6 150.34 347.89 152.13 348.89C154.13 350.14 156.13 348.25 157.92 347.17C159.54 346.17 159.97 344.84 160.02 343.05C159.972 340.252 159.579 337.471 158.85 334.77C163.44 341.48 161.67 349.43 154.65 350.23C153.84 350.32 153.07 350.78 152.26 350.86C150.18 351.07 150.17 352.63 149.97 354.11C149.65 356.45 151.44 355.76 152.58 355.88C153.411 355.892 154.215 356.178 154.868 356.693C155.521 357.208 155.985 357.924 156.19 358.73L156.31 358.64C150.46 355.9 148.87 356.8 147.94 363.31C146.94 370.07 145.94 376.81 145.94 383.67C145.94 398.1 153.71 409.07 167.27 414.13C170.57 415.36 171.27 414.69 171.04 411.31C170.49 402.6 170.46 393.88 172.67 385.31C171.944 392.907 171.714 400.543 171.98 408.17C172.19 414.44 172.98 416.91 179.32 417.54C181.13 417.805 182.92 418.189 184.68 418.69C187.68 419.39 189.37 418.94 190.49 415.42C195.4 400.06 200.66 384.81 205.97 369.59C206.89 366.95 206.85 365.1 205.06 362.79C198.296 354.027 194.745 343.207 195 332.14C195.18 308.68 203.53 288.26 218.9 270.71C226.08 262.51 233.3 254.24 243.9 250.17C240.84 245.67 235.34 246.17 232.17 242.79L232.08 242.9C234.08 243.53 236.17 244.17 238.22 244.78C240.27 245.39 241.57 245.29 240.84 242.58C239.13 236.17 239.15 229.47 237.1 223.07C233.76 212.61 233.92 212.89 223.02 211.07C210.73 209.07 201.97 213.42 196.18 224.19C191.7 232.51 187.36 240.91 182.91 249.25C182.285 250.429 181.941 251.736 181.902 253.069C181.864 254.403 182.134 255.727 182.69 256.94V256.92ZM464.69 135.24C462.218 133.841 460.103 131.891 458.51 129.54C456.51 126.92 454.96 127.27 452.36 128.71C444.16 133.23 439.36 140.93 433.55 147.71C432.03 149.51 432.48 151.16 433.83 153.07C452.06 178.71 456.9 218.64 435.2 250.96C423.46 268.45 409.39 283.15 389.51 291.25C385.65 292.82 382.25 293.93 385.09 296.81C383.55 292.95 379.34 295.05 375.09 296.36C366.502 299.052 357.569 300.484 348.57 300.61C343.87 300.61 340.32 301.32 338.47 306C338.17 304.13 341.67 301 336.64 300.68C322.184 299.831 308.005 296.35 294.8 290.41C291.08 288.72 293.31 291.99 292.46 292.96C289.86 289.96 288.11 286.32 284.16 284.7C279.313 282.564 274.864 279.622 271 276C263 268.85 255.12 261.54 247.23 254.26C246.5 253.59 245.92 252.43 244.84 253.01C239.84 255.68 234.92 258.48 230.98 263.18C234.47 264.47 237.85 264.18 239.26 267.52C230.31 263.14 229.38 263.36 223.11 271.25C221.67 273.07 220.11 274.82 218.77 276.7C215.1 281.78 216.6 286.27 222.56 288.26C228.23 290.16 235.8 288.26 239.49 283.95C243.18 279.64 243.26 274.71 239.62 267.84C245.99 272.56 245.3 281.84 238.2 287.03C230.64 292.54 222.56 291.62 213.58 284.13C213.1 284.8 212.65 285.48 212.13 286.13C209.33 289.55 210.63 291.13 214.51 291.88C217.68 292.53 221.05 292.7 223.81 294.81C220.05 295.17 216.75 293.35 213.29 292.42C210.1 291.56 208.11 291.93 207.44 295.62C212.833 296.953 218.236 298.323 223.65 299.73C225.13 300.11 226.37 299.84 226.88 298.3C227.39 296.76 226.07 296.44 225.02 295.93C224.502 295.574 224.04 295.143 223.65 294.65C225.65 295.28 228.85 294.99 228.12 298.33C227.33 301.97 224.71 301.49 221.83 300.4C219.006 299.432 216.106 298.703 213.16 298.22C206.32 296.9 205.89 297.22 203.59 304C202.77 306.356 202.072 308.752 201.5 311.18C198.68 323.67 197.61 336.18 201.56 348.67C202.49 351.67 203.21 353.32 207.33 352.33C211.581 351.479 215.981 351.759 220.09 353.14C222.84 353.97 222.9 354.8 222.36 357.09C218.36 353.52 213.93 351.76 208.62 352.95C205.28 353.7 203.96 355.07 206.28 358.41C210.166 364.282 215.543 369.017 221.86 372.13C242.86 382.13 263.94 380.22 284.63 371.29C287.96 369.85 291.08 369.65 294.34 369.18C300.84 368.24 306.57 361.56 306 355.28C306 354.88 305.64 354.28 305.34 354.18C299.04 352.58 302.78 351.34 305.34 349.7C307.09 348.59 308.04 345.24 306.13 345.23C300.79 345.23 303.86 342.82 304.58 341.23C305.58 339.12 306.91 335.06 305.39 335.23C299.99 335.67 298.82 331.58 295.98 328.97C294.03 327.18 290.87 327.76 288.58 329.66C286.92 331.04 285.37 332.56 283.77 334.02C282.51 335.17 281.34 335.95 279.35 335.32C271.48 332.84 263.35 332.57 255.14 332.55C253.72 332.55 251.72 332.88 251.72 330.82C251.72 329.28 253.54 329.16 254.85 329.01C260.154 328.383 265.523 328.572 270.77 329.57C276.77 330.71 282.77 332.68 287.41 326.32C288.68 324.56 292.07 325.32 292.69 322.32C294.23 314.93 299.98 313.04 306.36 312C314.12 310.74 321.97 310.69 329.78 310.46C333.78 310.34 336.78 309.56 338.64 305.81C337.41 309.05 338.19 310.12 341.91 309.81C354.54 308.81 367.21 309.4 379.83 310.09C390.02 310.65 393.68 313.88 395.67 323.09C397.75 320.82 399.67 318.81 401.5 316.7C415.31 300.7 426.88 282.89 440.12 266.4C441.7 264.4 440.95 262.8 440.45 260.86C438.15 251.86 443.97 242.43 453.02 241.8C457.47 241.49 459.69 239.45 461.69 236.37C471.09 221.84 480.4 207.26 489.74 192.69C494 185.94 498 179 500.83 171.51C501.23 170.43 502.67 169.01 501.2 167.94C499.73 166.87 498.07 166.14 499.14 164.15C500.34 161.92 502.78 162 504.9 162.06C518.3 162.44 526.51 153.97 534.03 144.68C534.743 143.761 535.213 142.678 535.397 141.53C535.582 140.382 535.474 139.206 535.085 138.11C534.695 137.014 534.037 136.034 533.169 135.26C532.301 134.486 531.253 133.943 530.12 133.68C524.57 132.46 521.32 126.81 515.36 126.68C514.73 126.68 514.04 125.68 513.54 125.07C512.62 123.91 511.54 124.07 510.19 123.91C503.5 123.03 497.41 125.67 491.04 126.6C488.226 126.984 485.363 126.783 482.63 126.01C481.18 125.62 479.47 125.01 479.71 123.18C479.95 121.35 481.71 121.25 483.27 121.26C486.1 121.26 488.93 121.42 491.75 121.26C495.65 121.05 499.68 120.6 501.06 116.09C502.52 111.34 500.39 107.58 496.78 104.69C491.51 100.46 485.28 98.89 478.62 98.74C466.31 98.47 461.02 103.11 459.1 115.24C457.89 122.89 457.54 130.04 465.25 134.77L464.69 135.24ZM160.69 548.7C166.22 550.97 167.92 546.84 168.99 543.11C171.38 534.76 176.86 529.77 184.34 525.84C193.876 520.696 202.886 514.63 211.24 507.73C212.82 506.46 213.56 503.43 214.15 503.44C217.46 503.44 219.29 501.23 221.49 499.58C234.6 489.78 243.49 476.29 251.57 462.58C259.65 448.87 268.46 435.48 277 422C279.32 418.32 282.24 415.46 286.83 415.15C287.568 415.101 288.282 414.871 288.91 414.481C289.538 414.09 290.06 413.55 290.43 412.91C294.4 407.146 297.522 400.842 299.7 394.19C300.57 391.71 299.7 391.09 297.28 390.85C293.139 390.46 289.025 389.826 284.96 388.95C281.63 388.22 278.03 386.65 277.41 383.16C276.59 378.59 274.23 379.79 271.48 380.38C250.79 384.79 231.07 382.74 212.9 371.22C210.43 369.66 209.74 370.1 208.9 372.71C205.38 383.4 202.2 394.23 198.57 404.82C194.87 415.62 191.15 426.51 187.31 437.3C184 446.42 181.49 456 178 464.93C173 477.7 166 489.68 159 501.56C158.185 502.823 157.661 504.252 157.465 505.743C157.27 507.234 157.408 508.749 157.87 510.18C156.62 509.33 156.03 506.96 154.68 509.34C153.17 512 150.77 514.13 151 517.79C151.2 520.99 151 524.49 147.41 526.42C146.36 526.98 146.21 528.42 146.14 529.55C145.669 534.365 145.902 539.222 146.83 543.97C147.37 546.35 148.34 547.35 150.89 547.11C154.34 546.79 157.83 546.83 160.89 548.91C159 549.39 157.33 548.04 155.55 548.19C153.48 548.36 150.14 546.82 149.74 549.73C149.39 552.23 152.26 553.66 154.85 554.28C156.313 554.598 157.835 554.508 159.25 554.02C162.49 553 163.57 551.4 160.74 548.73L160.69 548.7ZM304.16 435.42C300.81 436.57 299.16 432.26 296.51 435.32C288.62 444.48 278.35 448.18 266.51 447.68C264.76 447.61 264.61 448.68 264.1 449.56C261.013 454.893 257.966 460.247 254.96 465.62C254.24 466.9 253.25 468.19 254.1 469.8C256.03 473.43 256.04 477.52 256.83 481.41C257.53 484.84 258.46 487.15 262.69 485.35C264.52 484.57 266.61 485.15 268.61 485.35C270.41 485.5 272.01 489.15 274.01 485.77C275.19 483.77 277.47 481.59 277.23 479.77C276.47 473.93 280.17 475.21 283.32 475.16C301.98 474.87 320.32 473.6 335.86 461.24C338.54 459.11 340.06 457.55 337.21 454.34C339.21 456.63 340.94 457.54 343.43 455.48C351.99 448.39 359.59 440.69 363.3 429.77C365.905 421.873 367.861 413.776 369.15 405.56C369.78 401.79 369.83 398.94 364.56 399.07C366.39 397.65 369.77 399.69 369.56 396.61C369.13 391.14 369.56 385.52 367.56 378.61C361.56 392.33 351.32 394.2 339.23 393.16C328.12 392.16 316.93 392.25 305.77 391.88C303.86 391.82 301.77 391.18 301.05 394.11C299.24 401.11 295.69 407.32 291.84 413.35C290.84 414.87 289.95 415.85 292.07 417.27C293.66 418.371 294.978 419.821 295.922 421.509C296.867 423.197 297.413 425.079 297.52 427.01C297.81 431.19 299.29 434.15 304.16 435.42ZM310.09 320.52C309.433 320.664 308.762 320.738 308.09 320.74C303.62 319.97 302.44 322.86 301.61 326.34C300.78 329.82 302.08 331.51 305.61 332.17C307.73 332.57 308.82 334.65 308.85 336.75C308.94 342.68 310.32 348.68 308.85 354.53C307.75 358.82 307.14 363.3 304.85 367.25C298.71 377.99 299.19 379.5 311.32 381L333.7 383.75C331.7 385.36 330.06 384.57 328.56 384.4C321.79 383.63 315.01 382.8 308.27 381.8C300.02 380.58 299.14 379.27 300.83 370.34C296.26 373.76 289.83 371.57 286.83 377.34C286.3 378.34 286.02 376.91 285.71 376.85C282.6 376.24 279.51 377.12 278.18 379.85C276.85 382.58 279.33 384.44 281.52 385.79C284.733 387.607 288.316 388.674 292 388.91C310.41 390.85 328.9 390.86 347.38 390.91C354.5 390.91 361.11 388.14 363.7 381.39C367.04 372.67 373.47 366.06 377.54 357.94C382.09 348.87 386.4 339.69 391.07 330.69C396.64 319.96 392.84 312.89 380.72 311.93C357.23 310.06 333.8 311.66 310.38 313.31C307.05 313.54 303.47 313.59 300.15 315.48C302.3 319.37 305.83 320.08 310.09 320.51V320.52ZM352.71 118C351.291 117.954 349.871 118.044 348.47 118.27C345.47 119.14 340.54 117.95 340.47 122.36C340.4 126.77 345.3 126.3 348.3 126.79C384.53 132.63 408.92 152.88 422.3 186.85C424.874 193.35 426.26 200.26 426.39 207.25C426.45 209.87 427.39 212.25 430.67 212.36C433.67 212.47 435.18 210.66 435.99 208.05C437.005 204.685 437.16 201.12 436.44 197.68C431.413 171.68 418.266 150.787 397 135C383.59 125.07 368.77 118.94 352.71 118ZM218 175.89C205.57 176.66 195.42 181.54 189.69 193.11C186.04 200.47 185.53 208.16 190.43 215.42C192.43 218.35 194.36 219.07 196.75 215.5C201.98 207.7 209.48 204.62 218.75 205.74C222.859 206.099 226.948 206.666 231 207.44C233.92 208.1 234.72 207.8 234.61 204.56C234.47 199.905 234.714 195.245 235.34 190.63C236.53 181.63 235.56 179.8 226.83 177.17C223.984 176.23 220.995 175.797 218 175.89V175.89ZM251.2 215.07C258.52 223.57 262.2 232.58 261.86 243.07C260.05 234.39 258.27 225.75 252.1 218.75C249.1 215.37 247.1 215.2 244.83 218.82C237.92 229.73 244.65 252.91 256.34 258.44C261.68 260.96 266.11 259.54 268.97 254.36C271.83 249.18 271.6 243.76 270.97 238.28C269.52 226.44 261.75 217 251.16 215.07H251.2ZM485.89 94.49C489.05 95.67 491.89 96.49 494.58 97.79C503.28 101.98 506.52 107.79 505.31 117.34C504.97 120.04 506.2 120.08 508.05 119.99C510.28 119.87 511.14 118.1 511.83 116.48C515.597 107.542 516.376 97.6264 514.05 88.21C512.86 83 509.34 81.02 503.93 81.66C495.64 82.64 490.35 87.8 485.89 94.49ZM535.14 101.86C535.26 93 529.8 88 521.68 87.8C519.02 87.8 518.33 88.47 518.56 91.2C519.36 100.36 519.09 109.49 515.67 118.2C514.45 121.29 516.4 122.2 518.39 122.9C521.16 123.9 523.64 122.73 525.66 120.79C530.988 115.821 534.353 109.103 535.14 101.86ZM266.71 445.35C275.4 443.14 283.1 440.8 289.92 436.19C291.006 435.425 291.93 434.453 292.64 433.33C295.37 429.09 293.93 422.67 289.78 420.08C286.12 417.79 283.16 418.98 279.78 424.33C275.52 431 271.38 437.81 266.71 445.35ZM547.07 109.92C547.07 105.36 543.7 104.6 540.69 103.92C537.24 103.17 538.42 106.42 537.96 107.92C536.251 113.323 533.291 118.247 529.32 122.29C528.13 123.56 525.26 125.29 527.37 126.99C529.66 128.87 533.09 132.35 536.06 129.35C541.447 124.009 545.256 117.286 547.07 109.92ZM550.9 127C550.859 126.452 550.765 125.91 550.62 125.38C550.03 123.63 549.35 121.56 547.54 121.08C545.34 120.5 545.37 123.08 544.46 124.3C542.54 126.8 540.77 129.42 539.03 132.05C538.22 133.28 536.03 134.19 537.74 136.19C538.316 136.91 539.095 137.439 539.977 137.708C540.858 137.977 541.8 137.975 542.68 137.7C546.66 136.72 550.85 131.46 550.9 127ZM456.34 243C449.82 242.83 445.75 245.58 442.89 250.22C441.673 251.972 440.995 254.041 440.94 256.174C440.885 258.306 441.455 260.408 442.58 262.22C447.85 256.28 451.5 249.82 456.34 243ZM220 162.08C218.21 162.39 215.94 161.17 216 164.42C216.06 170.74 218.54 174.35 223.88 173.48C227.97 172.81 227.73 167.23 227.62 164.73C227.47 161.3 222.46 163.3 220 162.08ZM240.52 170.61C238.96 167.67 236.41 166.48 233.82 165.37C231.82 164.5 229.63 163.6 228.82 166.8C228.06 169.62 225.23 172.71 229.07 175.17C230.55 176.12 232.65 178.42 234.57 175.6C236.111 173.467 238.159 171.752 240.53 170.61H240.52ZM427.93 229.53C428.21 227.95 427.77 226.62 425.86 226.4C423.95 226.18 417.55 233.19 417.55 235.64C417.51 236.183 417.582 236.727 417.76 237.241C417.938 237.755 418.219 238.227 418.586 238.629C418.953 239.03 419.398 239.353 419.894 239.577C420.39 239.8 420.926 239.921 421.47 239.93C425 240.27 427.84 235.69 427.95 229.52L427.93 229.53ZM265.67 486.22C262.09 486.22 259.98 487.22 260.13 488.58C260.38 490.88 264.83 494.34 267.2 493.95C269.57 493.56 271.63 492.11 271.48 489.8C271.24 486.2 267.84 486.67 265.67 486.22ZM298.26 316.09C296.26 318.43 293.57 320.69 294.76 324.01C295.12 325.01 298.62 326.94 300.31 325.2C303.66 321.76 301.58 318.77 298.26 316.09V316.09ZM326.26 135.35C324.58 135.68 323.03 136.3 323.01 138.35C322.99 140.4 324.01 141.85 326.18 142.05C328.35 142.25 329.3 141.05 329.37 139.13C329.44 137.21 328.53 135.67 326.25 135.35H326.26ZM299.06 198.47C298.99 196.59 297.93 195.81 296.16 196.03C294.39 196.25 292.89 196.85 292.85 198.95C292.85 200.89 294.16 201.5 295.79 201.4C297.42 201.3 299 200.58 299.05 198.47H299.06ZM334.93 246.38C334.86 245.658 334.522 244.988 333.981 244.504C333.441 244.02 332.738 243.757 332.013 243.767C331.288 243.777 330.592 244.06 330.066 244.559C329.539 245.058 329.219 245.736 329.17 246.46C329.141 246.831 329.197 247.204 329.333 247.55C329.469 247.897 329.681 248.208 329.954 248.461C330.227 248.714 330.554 248.902 330.91 249.011C331.266 249.12 331.642 249.147 332.01 249.09C332.751 249.102 333.468 248.826 334.01 248.321C334.553 247.816 334.879 247.12 334.92 246.38H334.93ZM315.7 181.81C316.04 180.69 315.64 180.08 314.65 180.02C312.27 179.86 311.15 181.47 310.4 183.35C309.97 184.4 310.83 185.78 311.57 185.56C313.44 185 314.62 183.3 315.69 181.82L315.7 181.81ZM405.42 269.81C405.42 268.51 404.97 267.31 403.35 267.13C402.762 267.027 402.157 267.159 401.665 267.498C401.173 267.836 400.834 268.354 400.72 268.94C400.39 270.57 401.63 271.35 402.94 271.76C404.25 272.17 405.08 271.34 405.41 269.83L405.42 269.81Z" fill="url(#paint4_linear)"/>
<path d="M421.59 583.94C406.59 583.37 394.36 576.43 386.99 561.8C385.75 559.33 384.45 557.98 381.54 557.64C377.926 557.114 374.368 556.257 370.91 555.08C367.7 554.08 365.1 552.08 365.25 548.34C365.4 544.6 368.48 543.18 371.59 542.2C373.133 541.563 374.782 541.224 376.45 541.2C381.24 541.62 382.78 539.32 383.85 534.88C385.84 526.105 390.782 518.279 397.85 512.711C404.918 507.143 413.683 504.17 422.68 504.29C439.79 504.34 456.04 517.6 460.33 535.29C461.09 538.44 461.56 539.95 465.51 539.12C468.138 538.546 470.868 538.654 473.441 539.435C476.015 540.216 478.345 541.643 480.21 543.58C485.1 548.39 484.21 554.79 478.28 558.2C473.52 560.91 468.17 561.57 462.88 561.86C461.33 561.858 459.806 562.25 458.45 563.001C457.094 563.752 455.951 564.835 455.13 566.15C447.27 577.27 436.66 583.66 421.59 583.94ZM416.38 523.13C428.03 525.3 439.92 525.41 451.63 527.06C452.37 527.16 453.39 527.51 453.79 526.56C454.26 525.44 453.36 524.67 452.57 524.14C451.716 523.66 450.819 523.262 449.89 522.95C452.18 520.95 449.67 520 448.82 519.04C432.82 501.04 399.55 506.41 389.82 528.46C386.46 536.1 386.46 536.09 394.6 536.04C395.198 536.074 395.793 536.15 396.38 536.27C393.44 538.81 388.24 534.04 386.47 539.15C385.24 542.71 385.99 546.71 386.34 550.54C386.66 553.95 388.09 555.41 391.6 555.62C402.06 556.22 412.49 557.38 422.96 557.79C433.76 558.22 444.61 558.57 455.42 556.05L450 554.54C452.63 552.62 457.24 557.66 458.4 551.23C459.28 546.37 454.87 548.03 453.14 546.12C459.61 546.41 459.7 546.4 458.88 540.23C458.53 537.61 457.64 535.07 457.12 532.47C456.49 529.32 454.5 528.23 451.47 527.99C443.47 527.38 435.54 526.88 427.66 525.73C423.86 525.18 419.54 526.41 416.38 523.13V523.13ZM389.11 559C396.06 574 410.27 582.17 425.76 580.85C437.91 579.85 450.91 570.24 452.29 562.85C431.156 563.586 409.999 562.296 389.11 559V559ZM463.19 556.42C464.816 556.349 466.434 556.155 468.03 555.84C471.61 554.93 476.96 555.41 477.5 550.96C478.08 546.13 472.72 545.28 469.15 543.85C462.15 541.07 462.15 541.18 461.31 548.26C461.083 550.243 460.749 552.213 460.31 554.16C459.85 556.29 460.53 557 463.2 556.47L463.19 556.42ZM382.83 549.11C381.69 547.29 384.61 543.26 380.7 542.78C376.88 542.34 373.021 543.151 369.7 545.09C366.59 546.92 366.7 549.79 369.92 551.63C372.39 553.04 375.21 553.49 377.99 553.96C381.63 554.62 385.37 555.4 382.84 549.15L382.83 549.11Z" fill="url(#paint5_linear)"/>
<path d="M114.25 304.27C93.1896 304.19 76.9396 287.61 76.9796 266.27C76.9796 246.27 93.9796 229.2 114.44 230.27C136.88 231.43 151.88 243.89 152.09 266.97C152.28 288.15 135.61 304.36 114.25 304.27ZM104.54 282.22C95.2596 279.37 93.5396 273.59 99.8496 266.4C100.885 265.319 101.81 264.136 102.61 262.87C105.73 257.37 103.61 251.1 97.7796 248.14C90.5196 244.46 86.4596 245.76 83.5396 252.96C80.843 259.631 80.1718 266.949 81.6096 274C82.2296 277.27 83.6996 278.35 87.0496 278C95.8996 277.17 95.9296 277.3 98.0496 285.94C98.6013 288.657 99.9595 291.145 101.947 293.079C103.934 295.013 106.458 296.303 109.19 296.78C113.84 297.78 115.07 296.34 113.95 291.78C115.34 292.68 117.28 293.67 116.85 295.39C116.32 297.5 114 297.98 112 298.29C105.52 299.29 98.8296 294.18 96.7196 286.73C94.2896 278.17 92.8796 277.48 84.2896 281.02C90.2196 292.37 99.1196 299.27 112.04 300.19C123.24 300.99 132.73 297.43 140.04 288.35C131.37 284.16 130.58 282.63 133.86 277.14C133.938 277.63 133.938 278.13 133.86 278.62C132.53 282.48 134.37 284.52 137.76 285.92C141.45 287.44 142.92 285.08 144.3 282.46C150.37 270.99 149.39 259.7 143.06 248.75C137.62 239.35 136.42 239.41 130.82 248.42C123.92 259.52 124.03 260.59 132.45 270.76C134 272.63 135.96 274.61 133.74 277.32C133.86 274.02 131.25 272.41 129.34 270.42C122.51 263.29 122.04 260.16 126.87 251.42C128.423 248.485 130.185 245.665 132.14 242.98C134.49 239.89 133.51 237.87 130.63 236.12C125.431 233.064 119.423 231.668 113.41 232.12C108.726 232.312 104.134 233.482 99.93 235.556C95.7259 237.63 92.0026 240.561 88.9996 244.16C90.0696 245.59 91.1396 245.05 92.0596 245.16C97.6796 245.67 102.51 247.58 104.9 253.1C107.29 258.62 105.32 263.44 101.2 267.51C100.727 267.971 100.293 268.47 99.8996 269C96.8996 273.07 97.2796 276.21 101.08 279.41C102.22 280.37 103.39 281.29 104.54 282.22V282.22Z" fill="url(#paint6_linear)"/>
<path d="M473.68 420.07C459.51 420.07 447.37 408.38 447.47 394.77C447.56 388.472 450.131 382.464 454.625 378.051C459.118 373.638 465.172 371.176 471.47 371.2C486.27 371.07 499.88 383.5 499.85 397.14C499.85 409.29 487.57 420 473.68 420.07ZM455.13 389.74C454.51 392.35 450.43 391.86 450.54 395.58C450.81 404.5 458.18 413.5 467.79 415.82C477.92 418.27 489.89 412.82 493.95 403.94C496.66 397.99 492.53 382.22 487.17 378.08C480.98 373.3 467.48 372.54 461 376.71C459.42 377.71 457.2 378.64 458.57 381.31C452.63 381.68 452.83 386.7 450.86 391.12L455.13 389.74Z" fill="url(#paint7_linear)"/>
<path d="M41.8298 391.25C39.9322 395.734 37.407 399.926 34.3298 403.7C32.7698 405.7 29.3298 405.7 27.5498 403.7C25.5498 401.45 23.8798 402.07 21.5498 402.7C15.9598 404.21 13.2798 401.7 14.4298 396.12C14.7698 394.47 14.1598 393.79 13.3598 392.7C10.2898 388.49 12.0998 384.03 17.1698 383.96C20.0998 383.96 21.6398 383.12 22.8498 380.53C24.0598 377.94 26.0498 376.23 29.1898 376.75C32.1898 377.24 33.3298 379.64 33.6598 382.1C34.0198 384.81 35.2698 385.79 37.7798 385.94C40.8198 386 41.4498 388.27 41.8298 391.25ZM30.0898 402.85C32.4498 403.2 33.4998 402.17 33.4598 401.1C33.3398 397.33 35.7298 395.4 38.1598 393.1C40.5898 390.8 39.2498 386.88 36.3498 387.32C32.2798 387.94 32.5298 385.55 32.1498 383.19C31.8798 381.5 31.5798 379.75 29.6998 379.19C27.5198 378.57 26.0998 380.11 25.3698 381.75C23.8598 385.17 21.4598 386.24 17.8998 385.75C17.1517 385.597 16.3737 385.714 15.7037 386.08C15.0337 386.446 14.515 387.038 14.2398 387.75C13.9589 388.368 13.9291 389.072 14.1567 389.712C14.3843 390.351 14.8515 390.878 15.4598 391.18C18.0398 392.63 16.7398 394.37 16.0798 396.25C15.4198 398.13 14.3698 400.94 17.2698 401.05C21.9998 401.25 27.1898 396.45 30.0898 402.85V402.85Z" fill="url(#paint8_linear)"/>
<path d="M551.45 488.17C548.936 488.233 546.448 487.655 544.22 486.49C538.49 483.63 536.01 477.99 538.22 472.92C540.43 467.85 548.48 464.92 553.67 467.13C557.07 468.56 562.03 478.7 560.91 482.55C559.57 487.22 555.6 488 551.45 488.17ZM551.13 471.41C550.62 474.83 548.56 474.32 546.75 473.56C545.32 472.96 544.84 469.33 542.42 472.29C540.56 474.56 539.42 476.91 541.09 479.98C543.64 484.68 551.44 487.05 555.76 484.27C557.25 483.27 558.46 482.22 557.91 480.27C557.07 477.27 555.52 474.66 555.27 471.37C555.15 469.75 552.17 468.3 549.84 469.2C548.77 469.61 547.29 470.2 547.12 471.76C547.12 472.1 547.53 472.63 547.89 472.85C549.29 473.67 549.67 471.6 551.13 471.41Z" fill="url(#paint9_linear)"/>
<path d="M73.3402 538.84C74.8102 541.77 75.5802 545.2 78.9702 543.77C82.1402 542.44 86.7002 541.39 86.1602 536.77C85.6202 532.15 87.8802 526.61 82.5602 523.07C77.5602 519.74 75.3402 519.73 70.4902 523.53C69.8002 524.07 69.3802 525.24 67.7402 524.69C70.5702 520.55 74.1502 518.39 79.0202 519.42C84.2002 520.52 86.9302 524.07 86.9102 529.15C87.0085 530.119 87.2442 531.068 87.6102 531.97C89.4002 538.68 85.5502 544.26 78.6102 545.15C75.4502 545.54 74.1202 544.14 73.3402 538.84Z" fill="url(#paint10_linear)"/>
<path d="M70.79 603.82C78.5497 588.368 87.1768 573.368 96.63 558.89C96.7907 558.708 96.9927 558.568 97.2189 558.481C97.4452 558.394 97.6891 558.363 97.93 558.39C91.93 567.93 86.52 577.74 81.08 587.54C77.95 593.18 75.35 599.15 71.17 604.16L70.79 603.82Z" fill="url(#paint11_linear)"/>
<path d="M107.1 502C115.59 503.64 115.57 503.63 110.41 510.87C109.26 512.48 107.67 514.25 110.7 515.63C112.43 516.42 111.99 517.71 111.53 519C110.338 522.712 108.537 526.199 106.2 529.32C106.38 526 108.2 524.04 109.1 521.75C110 519.46 111.48 517.36 108.29 515.38C106.38 514.19 107.69 512.38 108.62 511.04C112.44 505.46 112.45 505.47 107.22 501.87L107.1 502Z" fill="url(#paint12_linear)"/>
<path d="M118.77 566.15C117.55 563.65 116.04 563.52 114.08 565.43C112.297 567.167 110.822 569.197 109.72 571.43C108.88 573.11 108.12 574.95 109.24 576.61C110.36 578.27 112.16 577.61 113.75 576.99C114.47 576.72 115.47 576.15 115.75 577.44C116.19 579.64 114.68 578.19 114.01 578.27C108.09 579.02 106.5 577.2 108.38 571.57C109.23 568.685 110.905 566.113 113.2 564.17C115.76 562.1 117.89 562.34 118.77 566.15Z" fill="url(#paint13_linear)"/>
<path d="M64.1901 577.43C64.3601 579.43 63.4901 580.71 61.4801 580.79C61.1414 580.814 60.8017 580.763 60.4846 580.641C60.1676 580.52 59.8809 580.331 59.6447 580.087C59.4084 579.843 59.2284 579.55 59.117 579.23C59.0057 578.909 58.9658 578.568 59.0001 578.23C58.9405 577.816 58.9717 577.395 59.0914 576.994C59.2112 576.594 59.4166 576.224 59.6935 575.911C59.9703 575.598 60.312 575.349 60.6948 575.181C61.0776 575.014 61.4923 574.931 61.9101 574.94C63.8601 574.74 64.0801 576 64.1901 577.43Z" fill="url(#paint14_linear)"/>
<path d="M107.23 501.85C100.3 499.28 99.2297 493.02 104.72 485.35C101.58 491.54 101.12 497.28 107.11 501.97L107.23 501.85Z" fill="url(#paint15_linear)"/>
<path d="M103.83 480C98.9095 476.42 98.4995 471.11 103.14 464C102.51 466.69 102.14 468.57 101.63 470.43C100.75 473.88 100.94 476.99 104.12 479.29C104.171 479.348 104.207 479.417 104.225 479.492C104.242 479.567 104.24 479.646 104.22 479.72C104.17 479.88 104 479.94 103.83 480Z" fill="url(#paint16_linear)"/>
<path d="M227.16 592C223.24 587.92 223.27 587.87 232.51 583.93C231.33 585.05 230.31 586.8 228.92 587.16C226.14 587.87 224.5 588.59 227.16 592Z" fill="url(#paint17_linear)"/>
<path d="M203.12 412.24L220.12 427.64C212.69 423.6 207.22 417.54 203.12 412.24Z" fill="url(#paint18_linear)"/>
<path d="M465.25 134.71L482.73 148.48C476.023 145.128 469.936 140.657 464.73 135.26L465.25 134.71Z" fill="url(#paint19_linear)"/>
<path d="M208.68 271.44C211.33 262.61 215.78 254.64 220.76 246.93L208.68 271.44Z" fill="url(#paint20_linear)"/>
<path d="M232.2 242.79C225.42 243.08 221.2 238.36 216.72 234.29L232.11 242.9L232.2 242.79Z" fill="url(#paint21_linear)"/>
<path d="M156.23 358.81C157.92 365.34 155.04 368.99 148.71 367.65C154.61 367.34 155.38 362.97 156.33 358.72L156.23 358.81Z" fill="url(#paint22_linear)"/>
<path d="M317.37 319.92L386 323.68L385.91 325.17L317.31 321L317.37 319.92Z" fill="url(#paint23_linear)"/>
<path d="M345.82 333.44C339.39 330.44 332.71 330.39 326.3 329.18C322.697 328.591 319.059 328.241 315.41 328.13C314.16 328.06 312.11 327.07 311.92 329.53C311.77 331.45 313.33 332.06 314.92 332.21C321.69 332.84 328.47 333.39 335.24 333.95C336.707 333.986 338.165 334.201 339.58 334.59C331.107 335.06 322.607 334.678 314.21 333.45C312.07 333.15 310.66 332.11 311.06 329.38C311.46 326.65 313.26 326.92 315.06 326.99C324.36 327.36 333.43 329.54 342.66 330.55C344 330.69 345.7 330.94 345.82 333.44Z" fill="url(#paint24_linear)"/>
<path d="M338.73 350.88C332.51 346.61 325.19 346.14 318.27 344.29C325.27 344 331.83 346.29 338.39 348.4C338.676 348.457 338.947 348.577 339.182 348.75C339.417 348.923 339.612 349.146 339.752 349.402C339.892 349.659 339.975 349.943 339.993 350.234C340.012 350.526 339.966 350.818 339.86 351.09C339.45 352.79 338.29 353 336.86 352.96C330.225 352.685 323.66 351.497 317.35 349.43C324.48 349.52 331.44 352.47 338.73 350.88Z" fill="url(#paint25_linear)"/>
<path d="M359.07 329C362.36 326.94 365.38 327.46 367.77 330.35C370.16 333.24 369.15 335.94 367.03 338.41C364.49 341.41 361.54 342.41 358.03 339.94L357.95 340.03C359.251 340.146 360.559 340.146 361.86 340.03C365.86 339.36 367.25 336.21 367 332.82C366.75 329.43 364 329.51 361.49 330.7C359.38 331.7 360.57 328.39 358.96 328.88L359.07 329Z" fill="url(#paint26_linear)"/>
<path d="M341.28 342.2C340.56 343.95 338.99 344.09 337.5 343.94C328.787 343.011 320.192 341.191 311.85 338.51C319.32 339.77 326.85 340.88 334.24 342.37C336.6 342.872 339.043 342.841 341.39 342.28L341.28 342.2Z" fill="url(#paint27_linear)"/>
<path d="M341.39 342.28C340.03 339.34 337.23 339.36 334.62 339.04C328.55 338.31 322.47 337.63 316.45 336.44C324.67 336.03 332.66 337.8 340.69 339.11C342.83 339.46 341.69 341.03 341.26 342.19L341.39 342.28Z" fill="url(#paint28_linear)"/>
<path d="M323.12 355.78L338.78 359.41C333.11 360.34 328.16 357.84 323.12 355.78Z" fill="url(#paint29_linear)"/>
<path d="M374.24 335.88C375.55 331.33 375.55 331.33 373.3 330.58C373.756 329.917 374.409 329.415 375.166 329.142C375.922 328.869 376.746 328.841 377.52 329.06C377.923 329.132 378.308 329.284 378.652 329.507C378.995 329.73 379.29 330.02 379.52 330.36C380.04 331.36 379.11 331.82 378.28 331.97C375.91 332.37 375.56 334.6 374.24 335.88Z" fill="url(#paint30_linear)"/>
<path d="M371.78 339.2C379.57 340.32 382.1 338.42 381.47 332.51C383.65 334.44 383.91 336.51 382.36 338.27C379.73 341.2 376.39 341.49 371.78 339.2Z" fill="url(#paint31_linear)"/>
<path d="M345 362.35C345.39 367.43 342.48 371.26 339.93 375.23L345 362.35Z" fill="url(#paint32_linear)"/>
<path d="M358 340C355.06 339.64 354.33 337.35 354.42 335.08C354.54 332.22 355.71 329.69 359.03 329.08L358.92 328.98C355.8 332.44 355.33 336.14 357.92 340.11L358 340Z" fill="url(#paint33_linear)"/>
<path d="M347 293C346.239 292.645 345.59 292.09 345.121 291.394C344.653 290.698 344.382 289.888 344.34 289.05C343.96 283.56 340.99 282.96 336.15 283.05C319.15 283.44 304.28 277.37 291.06 266.95C290.21 266.28 289.06 265.75 289.24 264.26C289.54 264.26 289.92 264.1 290.06 264.26C304.36 276.94 321.4 281.92 340.15 281.94C343.05 281.94 344.79 282.4 345.15 285.76C345.39 288.18 346.45 290.52 347.15 292.9L347 293Z" fill="url(#paint34_linear)"/>
<path d="M270 168C268.7 173.12 267.43 178.25 266.09 183.35C264.37 189.92 264.02 196.67 263.4 203.35C262.4 190.99 264.1 179.12 270.09 168.06L270 168Z" fill="url(#paint35_linear)"/>
<path d="M270.06 168.08C272.192 159.855 276.235 152.249 281.86 145.88L282.23 146.24L270 168L270.06 168.08Z" fill="url(#paint36_linear)"/>
<path d="M281.86 145.87C285.11 140.42 288.61 135.17 294.37 131.76L282.23 146.23L281.86 145.87Z" fill="url(#paint37_linear)"/>
<path d="M450.11 523C440.9 523 431.69 523.07 422.48 523C419.4 523 416.33 522.74 413.94 520.38C421.81 522.88 429.94 521.91 437.94 522C442 522.11 446.18 521.23 450.11 523Z" fill="url(#paint38_linear)"/>
<path d="M425.89 549.92C430.82 547.12 434.82 548.71 439.71 547.92C436.41 549.75 433.82 548.38 431.1 549.37C434.72 551.75 438.9 550.94 442.33 552.77C437.25 552.23 432.14 551.88 425.89 549.92Z" fill="url(#paint39_linear)"/>
<path d="M420.66 535.52C415.66 538.41 410.66 536.52 405.66 535.89C410.69 535.88 415.68 536.34 420.66 535.52Z" fill="url(#paint40_linear)"/>
<path d="M407.88 570.33C413.182 572.108 418.589 573.554 424.07 574.66C417.48 574.84 411.36 572.74 405.24 570.28C412.65 566.69 419.84 568.8 427.01 571.28C421.08 570.61 415.21 568.67 407.88 570.33Z" fill="url(#paint41_linear)"/>
<defs>
<linearGradient id="paint0_linear" x1="608.812" y1="305.644" x2="608.812" y2="339.333" gradientUnits="userSpaceOnUse">
<stop stop-color="#9711C6"/>
<stop offset="1" stop-color="#2538E0"/>
</linearGradient>
<linearGradient id="paint1_linear" x1="14.3702" y1="99.6733" x2="14.3702" y2="128.267" gradientUnits="userSpaceOnUse">
<stop stop-color="#9711C6"/>
<stop offset="1" stop-color="#2538E0"/>
</linearGradient>
<linearGradient id="paint2_linear" x1="48.085" y1="603.83" x2="48.085" y2="690" gradientUnits="userSpaceOnUse">
<stop stop-color="#9711C6"/>
<stop offset="1" stop-color="#2538E0"/>
</linearGradient>
<linearGradient id="paint3_linear" x1="355.094" y1="0.0300293" x2="355.094" y2="23.0871" gradientUnits="userSpaceOnUse">
<stop stop-color="#9711C6"/>
<stop offset="1" stop-color="#2538E0"/>
</linearGradient>
<linearGradient id="paint4_linear" x1="328.105" y1="77.9814" x2="328.105" y2="558.627" gradientUnits="userSpaceOnUse">
<stop stop-color="#9711C6"/>
<stop offset="1" stop-color="#2538E0"/>
</linearGradient>
<linearGradient id="paint5_linear" x1="424.308" y1="504.287" x2="424.308" y2="583.94" gradientUnits="userSpaceOnUse">
<stop stop-color="#9711C6"/>
<stop offset="1" stop-color="#2538E0"/>
</linearGradient>
<linearGradient id="paint6_linear" x1="114.535" y1="230.222" x2="114.535" y2="304.27" gradientUnits="userSpaceOnUse">
<stop stop-color="#9711C6"/>
<stop offset="1" stop-color="#2538E0"/>
</linearGradient>
<linearGradient id="paint7_linear" x1="473.66" y1="371.199" x2="473.66" y2="420.07" gradientUnits="userSpaceOnUse">
<stop stop-color="#9711C6"/>
<stop offset="1" stop-color="#2538E0"/>
</linearGradient>
<linearGradient id="paint8_linear" x1="26.8431" y1="376.657" x2="26.8431" y2="405.2" gradientUnits="userSpaceOnUse">
<stop stop-color="#9711C6"/>
<stop offset="1" stop-color="#2538E0"/>
</linearGradient>
<linearGradient id="paint9_linear" x1="549.245" y1="466.384" x2="549.245" y2="488.175" gradientUnits="userSpaceOnUse">
<stop stop-color="#9711C6"/>
<stop offset="1" stop-color="#2538E0"/>
</linearGradient>
<linearGradient id="paint10_linear" x1="77.8937" y1="519.165" x2="77.8937" y2="545.211" gradientUnits="userSpaceOnUse">
<stop stop-color="#9711C6"/>
<stop offset="1" stop-color="#2538E0"/>
</linearGradient>
<linearGradient id="paint11_linear" x1="84.36" y1="558.38" x2="84.36" y2="604.16" gradientUnits="userSpaceOnUse">
<stop stop-color="#9711C6"/>
<stop offset="1" stop-color="#2538E0"/>
</linearGradient>
<linearGradient id="paint12_linear" x1="110.075" y1="501.87" x2="110.075" y2="529.32" gradientUnits="userSpaceOnUse">
<stop stop-color="#9711C6"/>
<stop offset="1" stop-color="#2538E0"/>
</linearGradient>
<linearGradient id="paint13_linear" x1="113.202" y1="562.875" x2="113.202" y2="578.665" gradientUnits="userSpaceOnUse">
<stop stop-color="#9711C6"/>
<stop offset="1" stop-color="#2538E0"/>
</linearGradient>
<linearGradient id="paint14_linear" x1="61.5908" y1="574.919" x2="61.5908" y2="580.796" gradientUnits="userSpaceOnUse">
<stop stop-color="#9711C6"/>
<stop offset="1" stop-color="#2538E0"/>
</linearGradient>
<linearGradient id="paint15_linear" x1="104.225" y1="485.35" x2="104.225" y2="501.97" gradientUnits="userSpaceOnUse">
<stop stop-color="#9711C6"/>
<stop offset="1" stop-color="#2538E0"/>
</linearGradient>
<linearGradient id="paint16_linear" x1="102.062" y1="464" x2="102.062" y2="480" gradientUnits="userSpaceOnUse">
<stop stop-color="#9711C6"/>
<stop offset="1" stop-color="#2538E0"/>
</linearGradient>
<linearGradient id="paint17_linear" x1="228.599" y1="583.93" x2="228.599" y2="592" gradientUnits="userSpaceOnUse">
<stop stop-color="#9711C6"/>
<stop offset="1" stop-color="#2538E0"/>
</linearGradient>
<linearGradient id="paint18_linear" x1="211.62" y1="412.24" x2="211.62" y2="427.64" gradientUnits="userSpaceOnUse">
<stop stop-color="#9711C6"/>
<stop offset="1" stop-color="#2538E0"/>
</linearGradient>
<linearGradient id="paint19_linear" x1="473.73" y1="134.71" x2="473.73" y2="148.48" gradientUnits="userSpaceOnUse">
<stop stop-color="#9711C6"/>
<stop offset="1" stop-color="#2538E0"/>
</linearGradient>
<linearGradient id="paint20_linear" x1="214.72" y1="246.93" x2="214.72" y2="271.44" gradientUnits="userSpaceOnUse">
<stop stop-color="#9711C6"/>
<stop offset="1" stop-color="#2538E0"/>
</linearGradient>
<linearGradient id="paint21_linear" x1="224.46" y1="234.29" x2="224.46" y2="242.9" gradientUnits="userSpaceOnUse">
<stop stop-color="#9711C6"/>
<stop offset="1" stop-color="#2538E0"/>
</linearGradient>
<linearGradient id="paint22_linear" x1="152.708" y1="358.72" x2="152.708" y2="367.925" gradientUnits="userSpaceOnUse">
<stop stop-color="#9711C6"/>
<stop offset="1" stop-color="#2538E0"/>
</linearGradient>
<linearGradient id="paint23_linear" x1="351.655" y1="319.92" x2="351.655" y2="325.17" gradientUnits="userSpaceOnUse">
<stop stop-color="#9711C6"/>
<stop offset="1" stop-color="#2538E0"/>
</linearGradient>
<linearGradient id="paint24_linear" x1="328.406" y1="326.949" x2="328.406" y2="334.785" gradientUnits="userSpaceOnUse">
<stop stop-color="#9711C6"/>
<stop offset="1" stop-color="#2538E0"/>
</linearGradient>
<linearGradient id="paint25_linear" x1="328.673" y1="344.265" x2="328.673" y2="352.964" gradientUnits="userSpaceOnUse">
<stop stop-color="#9711C6"/>
<stop offset="1" stop-color="#2538E0"/>
</linearGradient>
<linearGradient id="paint26_linear" x1="363.552" y1="327.753" x2="363.552" y2="341.334" gradientUnits="userSpaceOnUse">
<stop stop-color="#9711C6"/>
<stop offset="1" stop-color="#2538E0"/>
</linearGradient>
<linearGradient id="paint27_linear" x1="326.62" y1="338.51" x2="326.62" y2="343.985" gradientUnits="userSpaceOnUse">
<stop stop-color="#9711C6"/>
<stop offset="1" stop-color="#2538E0"/>
</linearGradient>
<linearGradient id="paint28_linear" x1="329.2" y1="336.38" x2="329.2" y2="342.28" gradientUnits="userSpaceOnUse">
<stop stop-color="#9711C6"/>
<stop offset="1" stop-color="#2538E0"/>
</linearGradient>
<linearGradient id="paint29_linear" x1="330.95" y1="355.78" x2="330.95" y2="359.61" gradientUnits="userSpaceOnUse">
<stop stop-color="#9711C6"/>
<stop offset="1" stop-color="#2538E0"/>
</linearGradient>
<linearGradient id="paint30_linear" x1="376.485" y1="328.914" x2="376.485" y2="335.88" gradientUnits="userSpaceOnUse">
<stop stop-color="#9711C6"/>
<stop offset="1" stop-color="#2538E0"/>
</linearGradient>
<linearGradient id="paint31_linear" x1="377.564" y1="332.51" x2="377.564" y2="340.719" gradientUnits="userSpaceOnUse">
<stop stop-color="#9711C6"/>
<stop offset="1" stop-color="#2538E0"/>
</linearGradient>
<linearGradient id="paint32_linear" x1="342.482" y1="362.35" x2="342.482" y2="375.23" gradientUnits="userSpaceOnUse">
<stop stop-color="#9711C6"/>
<stop offset="1" stop-color="#2538E0"/>
</linearGradient>
<linearGradient id="paint33_linear" x1="356.722" y1="328.98" x2="356.722" y2="340.11" gradientUnits="userSpaceOnUse">
<stop stop-color="#9711C6"/>
<stop offset="1" stop-color="#2538E0"/>
</linearGradient>
<linearGradient id="paint34_linear" x1="318.185" y1="264.189" x2="318.185" y2="293" gradientUnits="userSpaceOnUse">
<stop stop-color="#9711C6"/>
<stop offset="1" stop-color="#2538E0"/>
</linearGradient>
<linearGradient id="paint35_linear" x1="266.611" y1="168" x2="266.611" y2="203.35" gradientUnits="userSpaceOnUse">
<stop stop-color="#9711C6"/>
<stop offset="1" stop-color="#2538E0"/>
</linearGradient>
<linearGradient id="paint36_linear" x1="276.115" y1="145.88" x2="276.115" y2="168.08" gradientUnits="userSpaceOnUse">
<stop stop-color="#9711C6"/>
<stop offset="1" stop-color="#2538E0"/>
</linearGradient>
<linearGradient id="paint37_linear" x1="288.115" y1="131.76" x2="288.115" y2="146.23" gradientUnits="userSpaceOnUse">
<stop stop-color="#9711C6"/>
<stop offset="1" stop-color="#2538E0"/>
</linearGradient>
<linearGradient id="paint38_linear" x1="432.025" y1="520.38" x2="432.025" y2="523.031" gradientUnits="userSpaceOnUse">
<stop stop-color="#9711C6"/>
<stop offset="1" stop-color="#2538E0"/>
</linearGradient>
<linearGradient id="paint39_linear" x1="434.11" y1="547.92" x2="434.11" y2="552.77" gradientUnits="userSpaceOnUse">
<stop stop-color="#9711C6"/>
<stop offset="1" stop-color="#2538E0"/>
</linearGradient>
<linearGradient id="paint40_linear" x1="413.16" y1="535.52" x2="413.16" y2="537.081" gradientUnits="userSpaceOnUse">
<stop stop-color="#9711C6"/>
<stop offset="1" stop-color="#2538E0"/>
</linearGradient>
<linearGradient id="paint41_linear" x1="416.125" y1="568.364" x2="416.125" y2="574.671" gradientUnits="userSpaceOnUse">
<stop stop-color="#9711C6"/>
<stop offset="1" stop-color="#2538E0"/>
</linearGradient>
</defs>
</svg>
