<svg width="656" height="720" viewBox="0 0 656 720" fill="none" xmlns="http://www.w3.org/2000/svg">
<g filter="url(#filter0_d)">
<path d="M646 337C643.32 341.19 638.54 343.13 635.5 347.15C632.88 350.61 627.12 349.77 625.35 345.95C623.94 342.95 622.1 342.95 619.51 343.02C611.744 343.113 609.714 339.757 613.42 332.95C613.785 332.415 613.958 331.773 613.913 331.127C613.868 330.481 613.606 329.869 613.17 329.39C611.52 327.01 611.9 324.63 613.54 322.46C614.299 321.333 615.417 320.497 616.712 320.089C618.007 319.68 619.403 319.723 620.67 320.21C623.88 321.54 625.74 320.67 627.87 318.33C628.878 317.196 630.189 316.371 631.648 315.953C633.107 315.535 634.654 315.541 636.11 315.97C637.326 316.383 638.346 317.229 638.977 318.347C639.608 319.465 639.805 320.776 639.53 322.03C638.35 327.77 641.91 329.42 645.99 331.03L646 337ZM619.39 322.46C615.55 322.46 613.83 325.05 615.91 328.05C617.57 330.45 617.19 331.81 615.28 333.5C613.61 334.98 612.11 336.78 613.46 339.13C614.81 341.48 617.24 341.44 619.27 340.78C623.09 339.54 625.52 339.62 626.99 344.24C628.06 347.61 632.08 348.11 632.99 345.3C634.39 340.77 637.99 339.76 641.3 337.85C644.61 335.94 644.77 331.62 641.51 330.92C636.51 329.85 637.09 327.25 637.63 323.53C638.25 319.29 635.63 317.78 631.74 319.73C630.827 320.132 630.001 320.71 629.31 321.43C627.31 323.84 625.13 325.03 622.09 323.05C621.235 322.686 620.319 322.486 619.39 322.46V322.46Z" fill="url(#paint0_linear)"/>
<path d="M20 123C21.56 122.12 22.47 120.17 24.48 120.1C26.49 120.03 26.79 118.86 26.93 117.17C27.2 113.92 27.93 110.7 31.7 109.83C35.1 109.04 36.91 111.36 38.22 114.04C39.07 115.78 40.16 115.61 41.85 115.35C47.15 114.53 49.6 117.35 48.47 122.66C47.8375 124.846 47.5342 127.114 47.57 129.39C47.6744 130.35 47.5267 131.32 47.1414 132.205C46.7562 133.09 46.1467 133.86 45.3733 134.437C44.5998 135.015 43.689 135.381 42.7309 135.499C41.7728 135.617 40.8005 135.483 39.91 135.11C37.49 134.11 36.5 135.11 34.91 136.33C30.33 139.79 26.65 138.56 25.04 133.08C24.25 130.39 21.29 130.08 20.04 127.99L20 123ZM41.44 133.86C44.15 133.63 45.44 132.1 44.44 129.86C43.29 127.21 43.83 125.28 45.44 123.12C46.0023 122.382 46.3151 121.484 46.3331 120.556C46.3511 119.629 46.0733 118.719 45.54 117.96C45.1469 117.401 44.5614 117.006 43.8954 116.851C43.2294 116.696 42.5297 116.792 41.93 117.12C38.93 118.95 37.99 117.32 36.93 114.99C36.24 113.5 35.18 111.89 33.26 112.09C31.08 112.32 30.39 114.3 30.07 116.09C29.48 119.41 28.45 122.03 24.51 122.49C23.841 122.582 23.2248 122.903 22.7669 123.4C22.3089 123.896 22.0378 124.536 22 125.21C21.9306 125.536 21.9276 125.872 21.9914 126.199C22.0552 126.525 22.1844 126.836 22.3712 127.111C22.558 127.387 22.7986 127.622 23.0785 127.802C23.3584 127.982 23.6718 128.104 24 128.16C26.33 128.73 27.19 130.04 26.82 132.49C26.58 134.1 26.64 136.14 28.48 136.82C29.3688 137.119 30.3355 137.089 31.2038 136.734C32.072 136.38 32.7841 135.725 33.21 134.89C34.9 132.09 36.69 130.69 39.68 133.22C40.224 133.536 40.82 133.753 41.44 133.86V133.86Z" fill="url(#paint1_linear)"/>
<path d="M45 700C55.84 674.28 69.35 649.85 81.84 624.84L78.93 631.19L79.68 631.58L90.79 613.83L91.17 614.16C88.36 619.41 85.83 624.84 82.68 629.89C69.75 650.67 58.9 672.52 48.76 694.75C47.94 696.55 46.93 698.25 46 700H45Z" fill="url(#paint2_linear)"/>
<path d="M365.88 31C364.88 27.7 363.66 24.44 362.81 21.09C362.38 19.4 362.96 17.23 364.87 17.19C369.87 17.08 371.22 12.71 374.01 10.03H378.01C380.01 13.36 380.84 17.39 385.74 18.4C387.81 18.83 387.96 22.68 386.74 23.56C383.06 26.12 384.87 34.1 379.11 32.98C375.27 32.24 371.61 32.35 367.88 31.98C367.15 31.92 366.47 31.22 365.78 30.82C367.27 30.76 369.09 31.23 370.16 30.53C372.85 28.79 374.81 28.31 377.33 31.03C378.91 32.74 381.07 31.78 381.08 29.32C381.09 26.86 382.27 25.55 383.85 23.96C386.37 21.43 385.48 18.96 381.93 18.77C379.42 18.66 379.29 17.39 379.11 15.68C378.93 13.97 378.29 12.62 376.61 12.35C375.929 12.2919 375.248 12.4685 374.68 12.8504C374.113 13.2324 373.693 13.7967 373.49 14.45C372.29 17.26 370.37 18.39 367.28 18.23C365.44 18.13 363.41 19.82 364.92 21.33C368.07 24.54 365.64 27.79 365.88 31Z" fill="url(#paint3_linear)"/>
<path d="M195.23 468.23C185.577 467.525 176.073 465.458 167 462.09C153.66 457.15 150.85 448.82 158.42 436.77C161.78 431.41 165.42 426.16 171.18 423C172.61 422.22 173.43 421.45 171.86 420.13C157.8 408.36 160.08 392.74 162.46 377.56C167.406 345.822 175.331 314.621 186.13 284.37C190.06 273.37 195.96 263.27 201.02 252.79C202.49 249.79 203.23 247.79 199.09 246.07C194.23 244.07 191.82 239.35 190.25 234.49C180.87 205.37 203.12 166.27 239.69 168C246.724 168.163 253.569 170.316 259.43 174.21C261.51 175.64 262.43 175.88 263.83 173.27C299.24 105.09 393.95 98.6 443.4 150.27C448.59 155.68 448.66 155.61 453.33 149.58C458.57 142.81 464.14 136.42 472.33 133.07C473.048 132.868 473.671 132.417 474.087 131.798C474.503 131.178 474.685 130.431 474.6 129.69C474.596 128.019 474.696 126.349 474.9 124.69C476.27 110.69 484.62 103.33 498.55 104.16C501.49 104.34 503.14 104.16 504.49 100.85C507.49 93.35 520.9 86.74 528.83 88.18C529.96 88.39 531.53 88.56 532.06 89.33C535.5 94.33 540.71 94 545.89 94.93C552.74 96.16 558.28 100.04 559.03 107.93C559.22 109.93 560.41 110.24 561.83 110.79C569.73 113.86 571.34 116.94 568.99 125.31C568.39 127.44 569.41 128.61 570.56 129.63C578.75 136.89 570.62 150.63 561.83 150.96C559.35 151.05 558.53 152.17 557.58 154.17C551.45 167.1 541.08 174.61 527.15 177.31C525.52 177.63 524.39 177.85 524.15 179.83C523.15 187.5 519.08 193.83 515.22 200.25C487.223 246.584 455.936 290.847 421.6 332.7C415.69 339.9 411.93 348.18 408.08 356.49C403.74 365.87 399.28 375.19 392.55 383.16C391.04 384.95 391.21 386.65 391.55 388.72C394.275 403.86 393.488 419.423 389.25 434.21C384.84 449.65 375.95 461.45 363.18 471.46C346.81 484.21 329 490.23 308.57 490C299.83 489.9 299.87 490.15 296.65 498.3C294.81 502.95 293.18 508.21 287.02 508.46C281.02 508.7 277.86 504.29 275.2 499.75C273.901 497.426 272.874 494.959 272.14 492.4C271.37 489.89 271.03 487.24 270.41 484.21C267.65 485.41 266.41 487.83 265.12 489.94C261.068 496.258 256.154 501.98 250.52 506.94C235.35 520.62 219.46 533.24 201.17 542.55C199.38 543.445 197.809 544.723 196.57 546.295C195.331 547.866 194.453 549.691 194 551.64C192.42 557.677 188.597 562.885 183.31 566.2C176.53 570.54 170 569.03 165.94 561.9C160.68 552.66 160.76 542.85 163.58 532.9C165.45 526.27 169.08 520.48 172.49 514.55C170.58 513.63 169.12 515.02 167.49 515.01C163.78 515.01 161.34 515.67 160.49 520.42C160.044 522.764 158.809 524.885 156.989 526.428C155.169 527.971 152.875 528.844 150.49 528.9C141.66 529.24 137.12 534.35 133.71 541.61C130.43 548.61 127.46 555.76 122.26 561.67C127.1 552 131 542 136.9 533C139.25 529.39 142.9 528.48 146.83 528.15C151.01 527.79 154.59 526.37 157.26 523.03C158.67 521.27 159.74 519.41 158.67 517.09C157.21 513.96 159.19 513.51 161.43 513.84C170.63 515.2 175.43 510.31 179.06 502.59C182.78 494.59 187.31 487.01 191.33 479.16C193.05 475.75 194.78 472.31 195.23 468.23ZM204.42 229.88C208.33 226.21 206.1 221.88 204.29 218.88C202.48 215.88 199.41 219.45 196.87 219.98C196.537 220.01 196.202 220.01 195.87 219.98C197.5 217.9 199.81 217.21 202.23 216.43C205.84 215.27 204.23 211.72 204.91 209.24C205.36 207.64 204.44 206.71 202.78 206.7C199.78 206.7 195.97 206.63 194.64 209.28C192.95 212.64 192.03 216.75 193.64 220.7C193.72 220.89 194.58 220.76 195.08 220.78C190.83 226.7 194.17 231.87 196.38 237.85L200.92 232.47C200.609 233.584 200.155 234.653 199.57 235.65C196.27 239.9 199.34 242.01 202.42 243.8C206.57 246.22 205.68 241.56 207.01 240.13C208.34 238.7 208.85 237 209.86 235.48C211.02 233.73 211.86 232.25 209.97 230.25C208.08 228.25 206.4 228.28 204.42 229.88V229.88ZM208.6 195.63C211.09 196.27 212.12 194.22 213.46 192.89C218.552 187.559 225.318 184.135 232.63 183.19C235.34 182.86 236.91 182.11 235.83 179.36C234.83 176.89 236.75 172.36 231.31 172.73C224.03 173.22 223.19 174.43 225.84 181.26C225.91 181.43 225.6 181.75 225.45 182.02C223.92 180.96 223.85 179.15 223.22 177.66C222.83 176.74 222.72 175.51 221.35 175.94C217.67 177.08 214.04 178.63 211.68 181.69C211.05 182.51 211.53 183.4 209.68 183.88C205.75 184.88 203.14 188.56 202.43 192.05C201.78 195.28 206.43 193.45 208.09 195.05C208.31 195.27 208.51 195.52 208.74 195.77C205.74 196.42 202.49 192.86 199.9 195.94C197.336 198.829 195.886 202.538 195.81 206.4C198.05 205.95 199.81 205.48 201.62 205.25C206.32 204.68 209.29 200.63 208.6 195.63V195.63ZM165.33 445.24C165.51 444.24 165.95 445.09 166.33 445.12C165.757 446.976 165.089 448.802 164.33 450.59C162.33 454.67 163.6 456.74 167.84 458.32C176.211 461.567 185.133 463.157 194.11 463C195.7 463 197.48 463.4 198.11 461C198.74 458.45 199.65 456 200.57 453C195.43 453.39 190.83 451.45 186.31 452C181.97 452.51 178.41 450.82 174.59 449.82C171.47 449 168 448.42 166.29 445.01C172.906 448.541 180.212 450.588 187.7 451.01C192.13 451.29 197.87 453.11 200.7 451.01C203.84 448.7 204.14 442.71 206.01 438.47C207.63 434.8 206.35 433.65 202.76 433.12C195.36 432.01 187.99 430.57 181.4 426.73C174.81 422.89 174.14 422.96 168.81 428.52C167.537 429.835 166.351 431.231 165.26 432.7C160.35 439.38 160.37 439.4 165.5 445.21C163.05 445.13 161.32 440.71 159.5 442.64C156.93 445.35 157.58 449.43 159.3 452.88C159.469 453.356 159.775 453.772 160.178 454.076C160.582 454.38 161.066 454.559 161.57 454.59L165.33 445.24ZM367.1 302.92C369.91 306.31 373.26 307.43 377.66 306.15C381.48 305.04 385.54 304.81 389.39 303.79C395.39 302.18 401.65 300.94 406.99 297.32C399.28 297.72 391.74 299.25 384.05 298.96C379.32 298.78 374.36 297.72 373.21 292.68C371.78 286.37 367.59 286.29 362.88 286.29C360.38 286.29 357.88 286.59 355.39 286.54C332.68 286.04 313.21 278.54 301.66 257.95C291.83 240.44 286.2 221.46 290.02 200.9C296.77 164.53 315.02 137.19 350.89 123.74C352.27 123.22 354.2 123.29 354.98 121.1C320.56 124.37 291.66 137.25 272.72 167.3C261.09 185.76 256.83 205.98 260.87 228.14C271.87 219.27 279.34 220.19 286.87 230.85C290.188 235.271 292.425 240.409 293.4 245.85C295.03 256.35 295.4 266.58 283.88 272.65C305.95 296.55 333.45 306.45 365.02 306.78C368.8 306.78 367.28 304.78 366.94 303.03L367.1 302.92ZM202.69 266.92C200.41 263.92 199.69 266.18 198.75 268.04C188.95 288.37 182.75 309.93 177 331.66C176.36 334.08 177.17 335.33 179.51 336.14C184.43 337.86 187.43 336.14 188.82 330.42C190.65 322.89 191.2 314.98 195.38 308.14C193.71 315.21 191.95 322.27 190.38 329.36C188.56 337.62 186.51 339.18 178.38 337.36C176.13 336.85 175.81 337.56 174.94 339.36C172.59 344.22 177.79 343.09 179.05 345.01C175.16 344.01 173.18 345.54 172.93 349.57C172.84 351.02 172.1 352.44 172 353.89C171.89 355.6 170.34 357.89 172.13 358.89C174.13 360.14 176.13 358.25 177.92 357.17C179.54 356.17 179.97 354.84 180.02 353.05C179.972 350.252 179.579 347.471 178.85 344.77C183.44 351.48 181.67 359.43 174.65 360.23C173.84 360.32 173.07 360.78 172.26 360.86C170.18 361.07 170.17 362.63 169.97 364.11C169.65 366.45 171.44 365.76 172.58 365.88C173.411 365.892 174.215 366.178 174.868 366.693C175.521 367.208 175.985 367.924 176.19 368.73L176.31 368.64C170.46 365.9 168.87 366.8 167.94 373.31C166.94 380.07 165.94 386.81 165.94 393.67C165.94 408.1 173.71 419.07 187.27 424.13C190.57 425.36 191.27 424.69 191.04 421.31C190.49 412.6 190.46 403.88 192.67 395.31C191.944 402.907 191.714 410.543 191.98 418.17C192.19 424.44 192.98 426.91 199.32 427.54C201.13 427.805 202.92 428.189 204.68 428.69C207.68 429.39 209.37 428.94 210.49 425.42C215.4 410.06 220.66 394.81 225.97 379.59C226.89 376.95 226.85 375.1 225.06 372.79C218.296 364.027 214.745 353.207 215 342.14C215.18 318.68 223.53 298.26 238.9 280.71C246.08 272.51 253.3 264.24 263.9 260.17C260.84 255.67 255.34 256.17 252.17 252.79L252.08 252.9C254.08 253.53 256.17 254.17 258.22 254.78C260.27 255.39 261.57 255.29 260.84 252.58C259.13 246.17 259.15 239.47 257.1 233.07C253.76 222.61 253.92 222.89 243.02 221.07C230.73 219.07 221.97 223.42 216.18 234.19C211.7 242.51 207.36 250.91 202.91 259.25C202.285 260.429 201.941 261.736 201.902 263.069C201.864 264.403 202.134 265.727 202.69 266.94V266.92ZM484.69 145.24C482.218 143.841 480.103 141.891 478.51 139.54C476.51 136.92 474.96 137.27 472.36 138.71C464.16 143.23 459.36 150.93 453.55 157.71C452.03 159.51 452.48 161.16 453.83 163.07C472.06 188.71 476.9 228.64 455.2 260.96C443.46 278.45 429.39 293.15 409.51 301.25C405.65 302.82 402.25 303.93 405.09 306.81C403.55 302.95 399.34 305.05 395.09 306.36C386.502 309.052 377.569 310.484 368.57 310.61C363.87 310.61 360.32 311.32 358.47 316C358.17 314.13 361.67 311 356.64 310.68C342.184 309.831 328.005 306.35 314.8 300.41C311.08 298.72 313.31 301.99 312.46 302.96C309.86 299.96 308.11 296.32 304.16 294.7C299.313 292.564 294.864 289.622 291 286C283 278.85 275.12 271.54 267.23 264.26C266.5 263.59 265.92 262.43 264.84 263.01C259.84 265.68 254.92 268.48 250.98 273.18C254.47 274.47 257.85 274.18 259.26 277.52C250.31 273.14 249.38 273.36 243.11 281.25C241.67 283.07 240.11 284.82 238.77 286.7C235.1 291.78 236.6 296.27 242.56 298.26C248.23 300.16 255.8 298.26 259.49 293.95C263.18 289.64 263.26 284.71 259.62 277.84C265.99 282.56 265.3 291.84 258.2 297.03C250.64 302.54 242.56 301.62 233.58 294.13C233.1 294.8 232.65 295.48 232.13 296.13C229.33 299.55 230.63 301.13 234.51 301.88C237.68 302.53 241.05 302.7 243.81 304.81C240.05 305.17 236.75 303.35 233.29 302.42C230.1 301.56 228.11 301.93 227.44 305.62C232.833 306.953 238.236 308.323 243.65 309.73C245.13 310.11 246.37 309.84 246.88 308.3C247.39 306.76 246.07 306.44 245.02 305.93C244.502 305.574 244.04 305.143 243.65 304.65C245.65 305.28 248.85 304.99 248.12 308.33C247.33 311.97 244.71 311.49 241.83 310.4C239.006 309.432 236.106 308.703 233.16 308.22C226.32 306.9 225.89 307.22 223.59 314C222.77 316.356 222.072 318.752 221.5 321.18C218.68 333.67 217.61 346.18 221.56 358.67C222.49 361.67 223.21 363.32 227.33 362.33C231.581 361.479 235.981 361.759 240.09 363.14C242.84 363.97 242.9 364.8 242.36 367.09C238.36 363.52 233.93 361.76 228.62 362.95C225.28 363.7 223.96 365.07 226.28 368.41C230.166 374.282 235.543 379.017 241.86 382.13C262.86 392.13 283.94 390.22 304.63 381.29C307.96 379.85 311.08 379.65 314.34 379.18C320.84 378.24 326.57 371.56 326 365.28C326 364.88 325.64 364.28 325.34 364.18C319.04 362.58 322.78 361.34 325.34 359.7C327.09 358.59 328.04 355.24 326.13 355.23C320.79 355.23 323.86 352.82 324.58 351.23C325.58 349.12 326.91 345.06 325.39 345.23C319.99 345.67 318.82 341.58 315.98 338.97C314.03 337.18 310.87 337.76 308.58 339.66C306.92 341.04 305.37 342.56 303.77 344.02C302.51 345.17 301.34 345.95 299.35 345.32C291.48 342.84 283.35 342.57 275.14 342.55C273.72 342.55 271.72 342.88 271.72 340.82C271.72 339.28 273.54 339.16 274.85 339.01C280.154 338.383 285.523 338.572 290.77 339.57C296.77 340.71 302.77 342.68 307.41 336.32C308.68 334.56 312.07 335.32 312.69 332.32C314.23 324.93 319.98 323.04 326.36 322C334.12 320.74 341.97 320.69 349.78 320.46C353.78 320.34 356.78 319.56 358.64 315.81C357.41 319.05 358.19 320.12 361.91 319.81C374.54 318.81 387.21 319.4 399.83 320.09C410.02 320.65 413.68 323.88 415.67 333.09C417.75 330.82 419.67 328.81 421.5 326.7C435.31 310.7 446.88 292.89 460.12 276.4C461.7 274.4 460.95 272.8 460.45 270.86C458.15 261.86 463.97 252.43 473.02 251.8C477.47 251.49 479.69 249.45 481.69 246.37C491.09 231.84 500.4 217.26 509.74 202.69C514 195.94 518 189 520.83 181.51C521.23 180.43 522.67 179.01 521.2 177.94C519.73 176.87 518.07 176.14 519.14 174.15C520.34 171.92 522.78 172 524.9 172.06C538.3 172.44 546.51 163.97 554.03 154.68C554.743 153.761 555.213 152.678 555.397 151.53C555.582 150.382 555.474 149.206 555.085 148.11C554.695 147.014 554.037 146.034 553.169 145.26C552.301 144.486 551.253 143.943 550.12 143.68C544.57 142.46 541.32 136.81 535.36 136.68C534.73 136.68 534.04 135.68 533.54 135.07C532.62 133.91 531.54 134.07 530.19 133.91C523.5 133.03 517.41 135.67 511.04 136.6C508.226 136.984 505.363 136.783 502.63 136.01C501.18 135.62 499.47 135.01 499.71 133.18C499.95 131.35 501.71 131.25 503.27 131.26C506.1 131.26 508.93 131.42 511.75 131.26C515.65 131.05 519.68 130.6 521.06 126.09C522.52 121.34 520.39 117.58 516.78 114.69C511.51 110.46 505.28 108.89 498.62 108.74C486.31 108.47 481.02 113.11 479.1 125.24C477.89 132.89 477.54 140.04 485.25 144.77L484.69 145.24ZM180.69 558.7C186.22 560.97 187.92 556.84 188.99 553.11C191.38 544.76 196.86 539.77 204.34 535.84C213.876 530.696 222.886 524.63 231.24 517.73C232.82 516.46 233.56 513.43 234.15 513.44C237.46 513.44 239.29 511.23 241.49 509.58C254.6 499.78 263.49 486.29 271.57 472.58C279.65 458.87 288.46 445.48 297 432C299.32 428.32 302.24 425.46 306.83 425.15C307.568 425.101 308.282 424.871 308.91 424.481C309.538 424.09 310.06 423.55 310.43 422.91C314.4 417.146 317.522 410.842 319.7 404.19C320.57 401.71 319.7 401.09 317.28 400.85C313.139 400.46 309.025 399.826 304.96 398.95C301.63 398.22 298.03 396.65 297.41 393.16C296.59 388.59 294.23 389.79 291.48 390.38C270.79 394.79 251.07 392.74 232.9 381.22C230.43 379.66 229.74 380.1 228.9 382.71C225.38 393.4 222.2 404.23 218.57 414.82C214.87 425.62 211.15 436.51 207.31 447.3C204 456.42 201.49 466 198 474.93C193 487.7 186 499.68 179 511.56C178.185 512.823 177.661 514.252 177.465 515.743C177.27 517.234 177.408 518.749 177.87 520.18C176.62 519.33 176.03 516.96 174.68 519.34C173.17 522 170.77 524.13 171 527.79C171.2 530.99 171 534.49 167.41 536.42C166.36 536.98 166.21 538.42 166.14 539.55C165.669 544.365 165.902 549.222 166.83 553.97C167.37 556.35 168.34 557.35 170.89 557.11C174.34 556.79 177.83 556.83 180.89 558.91C179 559.39 177.33 558.04 175.55 558.19C173.48 558.36 170.14 556.82 169.74 559.73C169.39 562.23 172.26 563.66 174.85 564.28C176.313 564.598 177.835 564.508 179.25 564.02C182.49 563 183.57 561.4 180.74 558.73L180.69 558.7ZM324.16 445.42C320.81 446.57 319.16 442.26 316.51 445.32C308.62 454.48 298.35 458.18 286.51 457.68C284.76 457.61 284.61 458.68 284.1 459.56C281.013 464.893 277.966 470.247 274.96 475.62C274.24 476.9 273.25 478.19 274.1 479.8C276.03 483.43 276.04 487.52 276.83 491.41C277.53 494.84 278.46 497.15 282.69 495.35C284.52 494.57 286.61 495.15 288.61 495.35C290.41 495.5 292.01 499.15 294.01 495.77C295.19 493.77 297.47 491.59 297.23 489.77C296.47 483.93 300.17 485.21 303.32 485.16C321.98 484.87 340.32 483.6 355.86 471.24C358.54 469.11 360.06 467.55 357.21 464.34C359.21 466.63 360.94 467.54 363.43 465.48C371.99 458.39 379.59 450.69 383.3 439.77C385.905 431.873 387.861 423.776 389.15 415.56C389.78 411.79 389.83 408.94 384.56 409.07C386.39 407.65 389.77 409.69 389.56 406.61C389.13 401.14 389.56 395.52 387.56 388.61C381.56 402.33 371.32 404.2 359.23 403.16C348.12 402.16 336.93 402.25 325.77 401.88C323.86 401.82 321.77 401.18 321.05 404.11C319.24 411.11 315.69 417.32 311.84 423.35C310.84 424.87 309.95 425.85 312.07 427.27C313.66 428.371 314.978 429.821 315.922 431.509C316.867 433.197 317.413 435.079 317.52 437.01C317.81 441.19 319.29 444.15 324.16 445.42ZM330.09 330.52C329.433 330.664 328.762 330.738 328.09 330.74C323.62 329.97 322.44 332.86 321.61 336.34C320.78 339.82 322.08 341.51 325.61 342.17C327.73 342.57 328.82 344.65 328.85 346.75C328.94 352.68 330.32 358.68 328.85 364.53C327.75 368.82 327.14 373.3 324.85 377.25C318.71 387.99 319.19 389.5 331.32 391L353.7 393.75C351.7 395.36 350.06 394.57 348.56 394.4C341.79 393.63 335.01 392.8 328.27 391.8C320.02 390.58 319.14 389.27 320.83 380.34C316.26 383.76 309.83 381.57 306.83 387.34C306.3 388.34 306.02 386.91 305.71 386.85C302.6 386.24 299.51 387.12 298.18 389.85C296.85 392.58 299.33 394.44 301.52 395.79C304.733 397.607 308.316 398.674 312 398.91C330.41 400.85 348.9 400.86 367.38 400.91C374.5 400.91 381.11 398.14 383.7 391.39C387.04 382.67 393.47 376.06 397.54 367.94C402.09 358.87 406.4 349.69 411.07 340.69C416.64 329.96 412.84 322.89 400.72 321.93C377.23 320.06 353.8 321.66 330.38 323.31C327.05 323.54 323.47 323.59 320.15 325.48C322.3 329.37 325.83 330.08 330.09 330.51V330.52ZM372.71 128C371.291 127.954 369.871 128.044 368.47 128.27C365.47 129.14 360.54 127.95 360.47 132.36C360.4 136.77 365.3 136.3 368.3 136.79C404.53 142.63 428.92 162.88 442.3 196.85C444.874 203.35 446.26 210.26 446.39 217.25C446.45 219.87 447.39 222.25 450.67 222.36C453.67 222.47 455.18 220.66 455.99 218.05C457.005 214.685 457.16 211.12 456.44 207.68C451.413 181.68 438.266 160.787 417 145C403.59 135.07 388.77 128.94 372.71 128ZM238 185.89C225.57 186.66 215.42 191.54 209.69 203.11C206.04 210.47 205.53 218.16 210.43 225.42C212.43 228.35 214.36 229.07 216.75 225.5C221.98 217.7 229.48 214.62 238.75 215.74C242.859 216.099 246.948 216.666 251 217.44C253.92 218.1 254.72 217.8 254.61 214.56C254.47 209.905 254.714 205.245 255.34 200.63C256.53 191.63 255.56 189.8 246.83 187.17C243.984 186.23 240.995 185.797 238 185.89V185.89ZM271.2 225.07C278.52 233.57 282.2 242.58 281.86 253.07C280.05 244.39 278.27 235.75 272.1 228.75C269.1 225.37 267.1 225.2 264.83 228.82C257.92 239.73 264.65 262.91 276.34 268.44C281.68 270.96 286.11 269.54 288.97 264.36C291.83 259.18 291.6 253.76 290.97 248.28C289.52 236.44 281.75 227 271.16 225.07H271.2ZM505.89 104.49C509.05 105.67 511.89 106.49 514.58 107.79C523.28 111.98 526.52 117.79 525.31 127.34C524.97 130.04 526.2 130.08 528.05 129.99C530.28 129.87 531.14 128.1 531.83 126.48C535.597 117.542 536.376 107.626 534.05 98.21C532.86 93 529.34 91.02 523.93 91.66C515.64 92.64 510.35 97.8 505.89 104.49ZM555.14 111.86C555.26 103 549.8 98 541.68 97.8C539.02 97.8 538.33 98.47 538.56 101.2C539.36 110.36 539.09 119.49 535.67 128.2C534.45 131.29 536.4 132.2 538.39 132.9C541.16 133.9 543.64 132.73 545.66 130.79C550.988 125.821 554.353 119.103 555.14 111.86ZM286.71 455.35C295.4 453.14 303.1 450.8 309.92 446.19C311.006 445.425 311.93 444.453 312.64 443.33C315.37 439.09 313.93 432.67 309.78 430.08C306.12 427.79 303.16 428.98 299.78 434.33C295.52 441 291.38 447.81 286.71 455.35ZM567.07 119.92C567.07 115.36 563.7 114.6 560.69 113.92C557.24 113.17 558.42 116.42 557.96 117.92C556.251 123.323 553.291 128.247 549.32 132.29C548.13 133.56 545.26 135.29 547.37 136.99C549.66 138.87 553.09 142.35 556.06 139.35C561.447 134.009 565.256 127.286 567.07 119.92ZM570.9 137C570.859 136.452 570.765 135.91 570.62 135.38C570.03 133.63 569.35 131.56 567.54 131.08C565.34 130.5 565.37 133.08 564.46 134.3C562.54 136.8 560.77 139.42 559.03 142.05C558.22 143.28 556.03 144.19 557.74 146.19C558.316 146.91 559.095 147.439 559.977 147.708C560.858 147.977 561.8 147.975 562.68 147.7C566.66 146.72 570.85 141.46 570.9 137ZM476.34 253C469.82 252.83 465.75 255.58 462.89 260.22C461.673 261.972 460.995 264.041 460.94 266.174C460.885 268.306 461.455 270.408 462.58 272.22C467.85 266.28 471.5 259.82 476.34 253ZM240 172.08C238.21 172.39 235.94 171.17 236 174.42C236.06 180.74 238.54 184.35 243.88 183.48C247.97 182.81 247.73 177.23 247.62 174.73C247.47 171.3 242.46 173.3 240 172.08ZM260.52 180.61C258.96 177.67 256.41 176.48 253.82 175.37C251.82 174.5 249.63 173.6 248.82 176.8C248.06 179.62 245.23 182.71 249.07 185.17C250.55 186.12 252.65 188.42 254.57 185.6C256.111 183.467 258.159 181.752 260.53 180.61H260.52ZM447.93 239.53C448.21 237.95 447.77 236.62 445.86 236.4C443.95 236.18 437.55 243.19 437.55 245.64C437.51 246.183 437.582 246.727 437.76 247.241C437.938 247.755 438.219 248.227 438.586 248.629C438.953 249.03 439.398 249.353 439.894 249.577C440.39 249.8 440.926 249.921 441.47 249.93C445 250.27 447.84 245.69 447.95 239.52L447.93 239.53ZM285.67 496.22C282.09 496.22 279.98 497.22 280.13 498.58C280.38 500.88 284.83 504.34 287.2 503.95C289.57 503.56 291.63 502.11 291.48 499.8C291.24 496.2 287.84 496.67 285.67 496.22ZM318.26 326.09C316.26 328.43 313.57 330.69 314.76 334.01C315.12 335.01 318.62 336.94 320.31 335.2C323.66 331.76 321.58 328.77 318.26 326.09V326.09ZM346.26 145.35C344.58 145.68 343.03 146.3 343.01 148.35C342.99 150.4 344.01 151.85 346.18 152.05C348.35 152.25 349.3 151.05 349.37 149.13C349.44 147.21 348.53 145.67 346.25 145.35H346.26ZM319.06 208.47C318.99 206.59 317.93 205.81 316.16 206.03C314.39 206.25 312.89 206.85 312.85 208.95C312.85 210.89 314.16 211.5 315.79 211.4C317.42 211.3 319 210.58 319.05 208.47H319.06ZM354.93 256.38C354.86 255.658 354.522 254.988 353.981 254.504C353.441 254.02 352.738 253.757 352.013 253.767C351.288 253.777 350.592 254.06 350.066 254.559C349.539 255.058 349.219 255.736 349.17 256.46C349.141 256.831 349.197 257.204 349.333 257.55C349.469 257.897 349.681 258.208 349.954 258.461C350.227 258.714 350.554 258.902 350.91 259.011C351.266 259.12 351.642 259.147 352.01 259.09C352.751 259.102 353.468 258.826 354.01 258.321C354.553 257.816 354.879 257.12 354.92 256.38H354.93ZM335.7 191.81C336.04 190.69 335.64 190.08 334.65 190.02C332.27 189.86 331.15 191.47 330.4 193.35C329.97 194.4 330.83 195.78 331.57 195.56C333.44 195 334.62 193.3 335.69 191.82L335.7 191.81ZM425.42 279.81C425.42 278.51 424.97 277.31 423.35 277.13C422.762 277.027 422.157 277.159 421.665 277.498C421.173 277.836 420.834 278.354 420.72 278.94C420.39 280.57 421.63 281.35 422.94 281.76C424.25 282.17 425.08 281.34 425.41 279.83L425.42 279.81Z" fill="url(#paint4_linear)"/>
<path d="M441.59 593.94C426.59 593.37 414.36 586.43 406.99 571.8C405.75 569.33 404.45 567.98 401.54 567.64C397.926 567.114 394.368 566.257 390.91 565.08C387.7 564.08 385.1 562.08 385.25 558.34C385.4 554.6 388.48 553.18 391.59 552.2C393.133 551.563 394.782 551.224 396.45 551.2C401.24 551.62 402.78 549.32 403.85 544.88C405.84 536.105 410.782 528.279 417.85 522.711C424.918 517.143 433.683 514.17 442.68 514.29C459.79 514.34 476.04 527.6 480.33 545.29C481.09 548.44 481.56 549.95 485.51 549.12C488.138 548.546 490.868 548.654 493.441 549.435C496.015 550.216 498.345 551.643 500.21 553.58C505.1 558.39 504.21 564.79 498.28 568.2C493.52 570.91 488.17 571.57 482.88 571.86C481.33 571.858 479.806 572.25 478.45 573.001C477.094 573.752 475.951 574.835 475.13 576.15C467.27 587.27 456.66 593.66 441.59 593.94ZM436.38 533.13C448.03 535.3 459.92 535.41 471.63 537.06C472.37 537.16 473.39 537.51 473.79 536.56C474.26 535.44 473.36 534.67 472.57 534.14C471.716 533.66 470.819 533.262 469.89 532.95C472.18 530.95 469.67 530 468.82 529.04C452.82 511.04 419.55 516.41 409.82 538.46C406.46 546.1 406.46 546.09 414.6 546.04C415.198 546.074 415.793 546.15 416.38 546.27C413.44 548.81 408.24 544.04 406.47 549.15C405.24 552.71 405.99 556.71 406.34 560.54C406.66 563.95 408.09 565.41 411.6 565.62C422.06 566.22 432.49 567.38 442.96 567.79C453.76 568.22 464.61 568.57 475.42 566.05L470 564.54C472.63 562.62 477.24 567.66 478.4 561.23C479.28 556.37 474.87 558.03 473.14 556.12C479.61 556.41 479.7 556.4 478.88 550.23C478.53 547.61 477.64 545.07 477.12 542.47C476.49 539.32 474.5 538.23 471.47 537.99C463.47 537.38 455.54 536.88 447.66 535.73C443.86 535.18 439.54 536.41 436.38 533.13V533.13ZM409.11 569C416.06 584 430.27 592.17 445.76 590.85C457.91 589.85 470.91 580.24 472.29 572.85C451.156 573.586 429.999 572.296 409.11 569V569ZM483.19 566.42C484.816 566.349 486.434 566.155 488.03 565.84C491.61 564.93 496.96 565.41 497.5 560.96C498.08 556.13 492.72 555.28 489.15 553.85C482.15 551.07 482.15 551.18 481.31 558.26C481.083 560.243 480.749 562.213 480.31 564.16C479.85 566.29 480.53 567 483.2 566.47L483.19 566.42ZM402.83 559.11C401.69 557.29 404.61 553.26 400.7 552.78C396.88 552.34 393.021 553.151 389.7 555.09C386.59 556.92 386.7 559.79 389.92 561.63C392.39 563.04 395.21 563.49 397.99 563.96C401.63 564.62 405.37 565.4 402.84 559.15L402.83 559.11Z" fill="url(#paint5_linear)"/>
<path d="M134.25 314.27C113.19 314.19 96.9396 297.61 96.9796 276.27C96.9796 256.27 113.98 239.2 134.44 240.27C156.88 241.43 171.88 253.89 172.09 276.97C172.28 298.15 155.61 314.36 134.25 314.27ZM124.54 292.22C115.26 289.37 113.54 283.59 119.85 276.4C120.885 275.319 121.81 274.136 122.61 272.87C125.73 267.37 123.61 261.1 117.78 258.14C110.52 254.46 106.46 255.76 103.54 262.96C100.843 269.631 100.172 276.949 101.61 284C102.23 287.27 103.7 288.35 107.05 288C115.9 287.17 115.93 287.3 118.05 295.94C118.601 298.657 119.959 301.145 121.947 303.079C123.934 305.013 126.458 306.303 129.19 306.78C133.84 307.78 135.07 306.34 133.95 301.78C135.34 302.68 137.28 303.67 136.85 305.39C136.32 307.5 134 307.98 132 308.29C125.52 309.29 118.83 304.18 116.72 296.73C114.29 288.17 112.88 287.48 104.29 291.02C110.22 302.37 119.12 309.27 132.04 310.19C143.24 310.99 152.73 307.43 160.04 298.35C151.37 294.16 150.58 292.63 153.86 287.14C153.938 287.63 153.938 288.13 153.86 288.62C152.53 292.48 154.37 294.52 157.76 295.92C161.45 297.44 162.92 295.08 164.3 292.46C170.37 280.99 169.39 269.7 163.06 258.75C157.62 249.35 156.42 249.41 150.82 258.42C143.92 269.52 144.03 270.59 152.45 280.76C154 282.63 155.96 284.61 153.74 287.32C153.86 284.02 151.25 282.41 149.34 280.42C142.51 273.29 142.04 270.16 146.87 261.42C148.423 258.485 150.185 255.665 152.14 252.98C154.49 249.89 153.51 247.87 150.63 246.12C145.431 243.064 139.423 241.668 133.41 242.12C128.726 242.312 124.134 243.482 119.93 245.556C115.726 247.63 112.003 250.561 109 254.16C110.07 255.59 111.14 255.05 112.06 255.16C117.68 255.67 122.51 257.58 124.9 263.1C127.29 268.62 125.32 273.44 121.2 277.51C120.727 277.971 120.293 278.47 119.9 279C116.9 283.07 117.28 286.21 121.08 289.41C122.22 290.37 123.39 291.29 124.54 292.22V292.22Z" fill="url(#paint6_linear)"/>
<path d="M493.68 430.07C479.51 430.07 467.37 418.38 467.47 404.77C467.56 398.472 470.131 392.464 474.625 388.051C479.118 383.638 485.172 381.176 491.47 381.2C506.27 381.07 519.88 393.5 519.85 407.14C519.85 419.29 507.57 430 493.68 430.07ZM475.13 399.74C474.51 402.35 470.43 401.86 470.54 405.58C470.81 414.5 478.18 423.5 487.79 425.82C497.92 428.27 509.89 422.82 513.95 413.94C516.66 407.99 512.53 392.22 507.17 388.08C500.98 383.3 487.48 382.54 481 386.71C479.42 387.71 477.2 388.64 478.57 391.31C472.63 391.68 472.83 396.7 470.86 401.12L475.13 399.74Z" fill="url(#paint7_linear)"/>
<path d="M61.8298 401.25C59.9322 405.734 57.407 409.926 54.3298 413.7C52.7698 415.7 49.3298 415.7 47.5498 413.7C45.5498 411.45 43.8798 412.07 41.5498 412.7C35.9598 414.21 33.2798 411.7 34.4298 406.12C34.7698 404.47 34.1598 403.79 33.3598 402.7C30.2898 398.49 32.0998 394.03 37.1698 393.96C40.0998 393.96 41.6398 393.12 42.8498 390.53C44.0598 387.94 46.0498 386.23 49.1898 386.75C52.1898 387.24 53.3298 389.64 53.6598 392.1C54.0198 394.81 55.2698 395.79 57.7798 395.94C60.8198 396 61.4498 398.27 61.8298 401.25ZM50.0898 412.85C52.4498 413.2 53.4998 412.17 53.4598 411.1C53.3398 407.33 55.7298 405.4 58.1598 403.1C60.5898 400.8 59.2498 396.88 56.3498 397.32C52.2798 397.94 52.5298 395.55 52.1498 393.19C51.8798 391.5 51.5798 389.75 49.6998 389.19C47.5198 388.57 46.0998 390.11 45.3698 391.75C43.8598 395.17 41.4598 396.24 37.8998 395.75C37.1517 395.597 36.3737 395.714 35.7037 396.08C35.0337 396.446 34.515 397.038 34.2398 397.75C33.9589 398.368 33.9291 399.072 34.1567 399.712C34.3843 400.351 34.8515 400.878 35.4598 401.18C38.0398 402.63 36.7398 404.37 36.0798 406.25C35.4198 408.13 34.3698 410.94 37.2698 411.05C41.9998 411.25 47.1898 406.45 50.0898 412.85V412.85Z" fill="url(#paint8_linear)"/>
<path d="M571.45 498.17C568.936 498.233 566.448 497.655 564.22 496.49C558.49 493.63 556.01 487.99 558.22 482.92C560.43 477.85 568.48 474.92 573.67 477.13C577.07 478.56 582.03 488.7 580.91 492.55C579.57 497.22 575.6 498 571.45 498.17ZM571.13 481.41C570.62 484.83 568.56 484.32 566.75 483.56C565.32 482.96 564.84 479.33 562.42 482.29C560.56 484.56 559.42 486.91 561.09 489.98C563.64 494.68 571.44 497.05 575.76 494.27C577.25 493.27 578.46 492.22 577.91 490.27C577.07 487.27 575.52 484.66 575.27 481.37C575.15 479.75 572.17 478.3 569.84 479.2C568.77 479.61 567.29 480.2 567.12 481.76C567.12 482.1 567.53 482.63 567.89 482.85C569.29 483.67 569.67 481.6 571.13 481.41Z" fill="url(#paint9_linear)"/>
<path d="M93.3402 548.84C94.8102 551.77 95.5802 555.2 98.9702 553.77C102.14 552.44 106.7 551.39 106.16 546.77C105.62 542.15 107.88 536.61 102.56 533.07C97.5602 529.74 95.3402 529.73 90.4902 533.53C89.8002 534.07 89.3802 535.24 87.7402 534.69C90.5702 530.55 94.1502 528.39 99.0202 529.42C104.2 530.52 106.93 534.07 106.91 539.15C107.008 540.119 107.244 541.068 107.61 541.97C109.4 548.68 105.55 554.26 98.6102 555.15C95.4502 555.54 94.1202 554.14 93.3402 548.84Z" fill="url(#paint10_linear)"/>
<path d="M90.79 613.82C98.5497 598.368 107.177 583.368 116.63 568.89C116.791 568.708 116.993 568.568 117.219 568.481C117.445 568.394 117.689 568.363 117.93 568.39C111.93 577.93 106.52 587.74 101.08 597.54C97.95 603.18 95.35 609.15 91.17 614.16L90.79 613.82Z" fill="url(#paint11_linear)"/>
<path d="M127.1 512C135.59 513.64 135.57 513.63 130.41 520.87C129.26 522.48 127.67 524.25 130.7 525.63C132.43 526.42 131.99 527.71 131.53 529C130.338 532.712 128.537 536.199 126.2 539.32C126.38 536 128.2 534.04 129.1 531.75C130 529.46 131.48 527.36 128.29 525.38C126.38 524.19 127.69 522.38 128.62 521.04C132.44 515.46 132.45 515.47 127.22 511.87L127.1 512Z" fill="url(#paint12_linear)"/>
<path d="M138.77 576.15C137.55 573.65 136.04 573.52 134.08 575.43C132.297 577.167 130.822 579.197 129.72 581.43C128.88 583.11 128.12 584.95 129.24 586.61C130.36 588.27 132.16 587.61 133.75 586.99C134.47 586.72 135.47 586.15 135.75 587.44C136.19 589.64 134.68 588.19 134.01 588.27C128.09 589.02 126.5 587.2 128.38 581.57C129.23 578.685 130.905 576.113 133.2 574.17C135.76 572.1 137.89 572.34 138.77 576.15Z" fill="url(#paint13_linear)"/>
<path d="M84.1901 587.43C84.3601 589.43 83.4901 590.71 81.4801 590.79C81.1414 590.814 80.8017 590.763 80.4846 590.641C80.1676 590.52 79.8809 590.331 79.6447 590.087C79.4084 589.843 79.2284 589.55 79.117 589.23C79.0057 588.909 78.9658 588.568 79.0001 588.23C78.9405 587.816 78.9717 587.395 79.0914 586.994C79.2112 586.594 79.4166 586.224 79.6935 585.911C79.9703 585.598 80.312 585.349 80.6948 585.181C81.0776 585.014 81.4923 584.931 81.9101 584.94C83.8601 584.74 84.0801 586 84.1901 587.43Z" fill="url(#paint14_linear)"/>
<path d="M127.23 511.85C120.3 509.28 119.23 503.02 124.72 495.35C121.58 501.54 121.12 507.28 127.11 511.97L127.23 511.85Z" fill="url(#paint15_linear)"/>
<path d="M123.83 490C118.91 486.42 118.5 481.11 123.14 474C122.51 476.69 122.14 478.57 121.63 480.43C120.75 483.88 120.94 486.99 124.12 489.29C124.171 489.348 124.207 489.417 124.225 489.492C124.242 489.567 124.24 489.646 124.22 489.72C124.17 489.88 124 489.94 123.83 490Z" fill="url(#paint16_linear)"/>
<path d="M247.16 602C243.24 597.92 243.27 597.87 252.51 593.93C251.33 595.05 250.31 596.8 248.92 597.16C246.14 597.87 244.5 598.59 247.16 602Z" fill="url(#paint17_linear)"/>
<path d="M223.12 422.24L240.12 437.64C232.69 433.6 227.22 427.54 223.12 422.24Z" fill="url(#paint18_linear)"/>
<path d="M485.25 144.71L502.73 158.48C496.023 155.128 489.936 150.657 484.73 145.26L485.25 144.71Z" fill="url(#paint19_linear)"/>
<path d="M228.68 281.44C231.33 272.61 235.78 264.64 240.76 256.93L228.68 281.44Z" fill="url(#paint20_linear)"/>
<path d="M252.2 252.79C245.42 253.08 241.2 248.36 236.72 244.29L252.11 252.9L252.2 252.79Z" fill="url(#paint21_linear)"/>
<path d="M176.23 368.81C177.92 375.34 175.04 378.99 168.71 377.65C174.61 377.34 175.38 372.97 176.33 368.72L176.23 368.81Z" fill="url(#paint22_linear)"/>
<path d="M337.37 329.92L406 333.68L405.91 335.17L337.31 331L337.37 329.92Z" fill="url(#paint23_linear)"/>
<path d="M365.82 343.44C359.39 340.44 352.71 340.39 346.3 339.18C342.697 338.591 339.059 338.241 335.41 338.13C334.16 338.06 332.11 337.07 331.92 339.53C331.77 341.45 333.33 342.06 334.92 342.21C341.69 342.84 348.47 343.39 355.24 343.95C356.707 343.986 358.165 344.201 359.58 344.59C351.107 345.06 342.607 344.678 334.21 343.45C332.07 343.15 330.66 342.11 331.06 339.38C331.46 336.65 333.26 336.92 335.06 336.99C344.36 337.36 353.43 339.54 362.66 340.55C364 340.69 365.7 340.94 365.82 343.44Z" fill="url(#paint24_linear)"/>
<path d="M358.73 360.88C352.51 356.61 345.19 356.14 338.27 354.29C345.27 354 351.83 356.29 358.39 358.4C358.676 358.457 358.947 358.577 359.182 358.75C359.417 358.923 359.612 359.146 359.752 359.402C359.892 359.659 359.975 359.943 359.993 360.234C360.012 360.526 359.966 360.818 359.86 361.09C359.45 362.79 358.29 363 356.86 362.96C350.225 362.685 343.66 361.497 337.35 359.43C344.48 359.52 351.44 362.47 358.73 360.88Z" fill="url(#paint25_linear)"/>
<path d="M379.07 339C382.36 336.94 385.38 337.46 387.77 340.35C390.16 343.24 389.15 345.94 387.03 348.41C384.49 351.41 381.54 352.41 378.03 349.94L377.95 350.03C379.251 350.146 380.559 350.146 381.86 350.03C385.86 349.36 387.25 346.21 387 342.82C386.75 339.43 384 339.51 381.49 340.7C379.38 341.7 380.57 338.39 378.96 338.88L379.07 339Z" fill="url(#paint26_linear)"/>
<path d="M361.28 352.2C360.56 353.95 358.99 354.09 357.5 353.94C348.787 353.011 340.192 351.191 331.85 348.51C339.32 349.77 346.85 350.88 354.24 352.37C356.6 352.872 359.043 352.841 361.39 352.28L361.28 352.2Z" fill="url(#paint27_linear)"/>
<path d="M361.39 352.28C360.03 349.34 357.23 349.36 354.62 349.04C348.55 348.31 342.47 347.63 336.45 346.44C344.67 346.03 352.66 347.8 360.69 349.11C362.83 349.46 361.69 351.03 361.26 352.19L361.39 352.28Z" fill="url(#paint28_linear)"/>
<path d="M343.12 365.78L358.78 369.41C353.11 370.34 348.16 367.84 343.12 365.78Z" fill="url(#paint29_linear)"/>
<path d="M394.24 345.88C395.55 341.33 395.55 341.33 393.3 340.58C393.756 339.917 394.409 339.415 395.166 339.142C395.922 338.869 396.746 338.841 397.52 339.06C397.923 339.132 398.308 339.284 398.652 339.507C398.995 339.73 399.29 340.02 399.52 340.36C400.04 341.36 399.11 341.82 398.28 341.97C395.91 342.37 395.56 344.6 394.24 345.88Z" fill="url(#paint30_linear)"/>
<path d="M391.78 349.2C399.57 350.32 402.1 348.42 401.47 342.51C403.65 344.44 403.91 346.51 402.36 348.27C399.73 351.2 396.39 351.49 391.78 349.2Z" fill="url(#paint31_linear)"/>
<path d="M365 372.35C365.39 377.43 362.48 381.26 359.93 385.23L365 372.35Z" fill="url(#paint32_linear)"/>
<path d="M378 350C375.06 349.64 374.33 347.35 374.42 345.08C374.54 342.22 375.71 339.69 379.03 339.08L378.92 338.98C375.8 342.44 375.33 346.14 377.92 350.11L378 350Z" fill="url(#paint33_linear)"/>
<path d="M367 303C366.239 302.645 365.59 302.09 365.121 301.394C364.653 300.698 364.382 299.888 364.34 299.05C363.96 293.56 360.99 292.96 356.15 293.05C339.15 293.44 324.28 287.37 311.06 276.95C310.21 276.28 309.06 275.75 309.24 274.26C309.54 274.26 309.92 274.1 310.06 274.26C324.36 286.94 341.4 291.92 360.15 291.94C363.05 291.94 364.79 292.4 365.15 295.76C365.39 298.18 366.45 300.52 367.15 302.9L367 303Z" fill="url(#paint34_linear)"/>
<path d="M290 178C288.7 183.12 287.43 188.25 286.09 193.35C284.37 199.92 284.02 206.67 283.4 213.35C282.4 200.99 284.1 189.12 290.09 178.06L290 178Z" fill="url(#paint35_linear)"/>
<path d="M290.06 178.08C292.192 169.855 296.235 162.249 301.86 155.88L302.23 156.24L290 178L290.06 178.08Z" fill="url(#paint36_linear)"/>
<path d="M301.86 155.87C305.11 150.42 308.61 145.17 314.37 141.76L302.23 156.23L301.86 155.87Z" fill="url(#paint37_linear)"/>
<path d="M470.11 533C460.9 533 451.69 533.07 442.48 533C439.4 533 436.33 532.74 433.94 530.38C441.81 532.88 449.94 531.91 457.94 532C462 532.11 466.18 531.23 470.11 533Z" fill="url(#paint38_linear)"/>
<path d="M445.89 559.92C450.82 557.12 454.82 558.71 459.71 557.92C456.41 559.75 453.82 558.38 451.1 559.37C454.72 561.75 458.9 560.94 462.33 562.77C457.25 562.23 452.14 561.88 445.89 559.92Z" fill="url(#paint39_linear)"/>
<path d="M440.66 545.52C435.66 548.41 430.66 546.52 425.66 545.89C430.69 545.88 435.68 546.34 440.66 545.52Z" fill="url(#paint40_linear)"/>
<path d="M427.88 580.33C433.182 582.108 438.589 583.554 444.07 584.66C437.48 584.84 431.36 582.74 425.24 580.28C432.65 576.69 439.84 578.8 447.01 581.28C441.08 580.61 435.21 578.67 427.88 580.33Z" fill="url(#paint41_linear)"/>
</g>
<defs>
<filter id="filter0_d" x="0" y="0" width="656" height="720" filterUnits="userSpaceOnUse" color-interpolation-filters="sRGB">
<feFlood flood-opacity="0" result="BackgroundImageFix"/>
<feColorMatrix in="SourceAlpha" type="matrix" values="0 0 0 0 0 0 0 0 0 0 0 0 0 0 0 0 0 0 127 0"/>
<feOffset dx="-5" dy="5"/>
<feGaussianBlur stdDeviation="7.5"/>
<feColorMatrix type="matrix" values="0 0 0 0 0.612215 0 0 0 0 0.171701 0 0 0 0 0.958333 0 0 0 0.5 0"/>
<feBlend mode="normal" in2="BackgroundImageFix" result="effect1_dropShadow"/>
<feBlend mode="normal" in="SourceGraphic" in2="effect1_dropShadow" result="shape"/>
</filter>
<linearGradient id="paint0_linear" x1="628.812" y1="315.644" x2="628.812" y2="349.333" gradientUnits="userSpaceOnUse">
<stop stop-color="#9711C6"/>
<stop offset="1" stop-color="#2538E0"/>
</linearGradient>
<linearGradient id="paint1_linear" x1="34.3702" y1="109.673" x2="34.3702" y2="138.267" gradientUnits="userSpaceOnUse">
<stop stop-color="#9711C6"/>
<stop offset="1" stop-color="#2538E0"/>
</linearGradient>
<linearGradient id="paint2_linear" x1="68.085" y1="613.83" x2="68.085" y2="700" gradientUnits="userSpaceOnUse">
<stop stop-color="#9711C6"/>
<stop offset="1" stop-color="#2538E0"/>
</linearGradient>
<linearGradient id="paint3_linear" x1="375.094" y1="10.03" x2="375.094" y2="33.0871" gradientUnits="userSpaceOnUse">
<stop stop-color="#9711C6"/>
<stop offset="1" stop-color="#2538E0"/>
</linearGradient>
<linearGradient id="paint4_linear" x1="348.105" y1="87.9814" x2="348.105" y2="568.627" gradientUnits="userSpaceOnUse">
<stop stop-color="#9711C6"/>
<stop offset="1" stop-color="#2538E0"/>
</linearGradient>
<linearGradient id="paint5_linear" x1="444.308" y1="514.287" x2="444.308" y2="593.94" gradientUnits="userSpaceOnUse">
<stop stop-color="#9711C6"/>
<stop offset="1" stop-color="#2538E0"/>
</linearGradient>
<linearGradient id="paint6_linear" x1="134.535" y1="240.222" x2="134.535" y2="314.27" gradientUnits="userSpaceOnUse">
<stop stop-color="#9711C6"/>
<stop offset="1" stop-color="#2538E0"/>
</linearGradient>
<linearGradient id="paint7_linear" x1="493.66" y1="381.199" x2="493.66" y2="430.07" gradientUnits="userSpaceOnUse">
<stop stop-color="#9711C6"/>
<stop offset="1" stop-color="#2538E0"/>
</linearGradient>
<linearGradient id="paint8_linear" x1="46.8431" y1="386.657" x2="46.8431" y2="415.2" gradientUnits="userSpaceOnUse">
<stop stop-color="#9711C6"/>
<stop offset="1" stop-color="#2538E0"/>
</linearGradient>
<linearGradient id="paint9_linear" x1="569.245" y1="476.384" x2="569.245" y2="498.175" gradientUnits="userSpaceOnUse">
<stop stop-color="#9711C6"/>
<stop offset="1" stop-color="#2538E0"/>
</linearGradient>
<linearGradient id="paint10_linear" x1="97.8937" y1="529.165" x2="97.8937" y2="555.211" gradientUnits="userSpaceOnUse">
<stop stop-color="#9711C6"/>
<stop offset="1" stop-color="#2538E0"/>
</linearGradient>
<linearGradient id="paint11_linear" x1="104.36" y1="568.38" x2="104.36" y2="614.16" gradientUnits="userSpaceOnUse">
<stop stop-color="#9711C6"/>
<stop offset="1" stop-color="#2538E0"/>
</linearGradient>
<linearGradient id="paint12_linear" x1="130.075" y1="511.87" x2="130.075" y2="539.32" gradientUnits="userSpaceOnUse">
<stop stop-color="#9711C6"/>
<stop offset="1" stop-color="#2538E0"/>
</linearGradient>
<linearGradient id="paint13_linear" x1="133.202" y1="572.875" x2="133.202" y2="588.665" gradientUnits="userSpaceOnUse">
<stop stop-color="#9711C6"/>
<stop offset="1" stop-color="#2538E0"/>
</linearGradient>
<linearGradient id="paint14_linear" x1="81.5908" y1="584.919" x2="81.5908" y2="590.796" gradientUnits="userSpaceOnUse">
<stop stop-color="#9711C6"/>
<stop offset="1" stop-color="#2538E0"/>
</linearGradient>
<linearGradient id="paint15_linear" x1="124.225" y1="495.35" x2="124.225" y2="511.97" gradientUnits="userSpaceOnUse">
<stop stop-color="#9711C6"/>
<stop offset="1" stop-color="#2538E0"/>
</linearGradient>
<linearGradient id="paint16_linear" x1="122.062" y1="474" x2="122.062" y2="490" gradientUnits="userSpaceOnUse">
<stop stop-color="#9711C6"/>
<stop offset="1" stop-color="#2538E0"/>
</linearGradient>
<linearGradient id="paint17_linear" x1="248.599" y1="593.93" x2="248.599" y2="602" gradientUnits="userSpaceOnUse">
<stop stop-color="#9711C6"/>
<stop offset="1" stop-color="#2538E0"/>
</linearGradient>
<linearGradient id="paint18_linear" x1="231.62" y1="422.24" x2="231.62" y2="437.64" gradientUnits="userSpaceOnUse">
<stop stop-color="#9711C6"/>
<stop offset="1" stop-color="#2538E0"/>
</linearGradient>
<linearGradient id="paint19_linear" x1="493.73" y1="144.71" x2="493.73" y2="158.48" gradientUnits="userSpaceOnUse">
<stop stop-color="#9711C6"/>
<stop offset="1" stop-color="#2538E0"/>
</linearGradient>
<linearGradient id="paint20_linear" x1="234.72" y1="256.93" x2="234.72" y2="281.44" gradientUnits="userSpaceOnUse">
<stop stop-color="#9711C6"/>
<stop offset="1" stop-color="#2538E0"/>
</linearGradient>
<linearGradient id="paint21_linear" x1="244.46" y1="244.29" x2="244.46" y2="252.9" gradientUnits="userSpaceOnUse">
<stop stop-color="#9711C6"/>
<stop offset="1" stop-color="#2538E0"/>
</linearGradient>
<linearGradient id="paint22_linear" x1="172.708" y1="368.72" x2="172.708" y2="377.925" gradientUnits="userSpaceOnUse">
<stop stop-color="#9711C6"/>
<stop offset="1" stop-color="#2538E0"/>
</linearGradient>
<linearGradient id="paint23_linear" x1="371.655" y1="329.92" x2="371.655" y2="335.17" gradientUnits="userSpaceOnUse">
<stop stop-color="#9711C6"/>
<stop offset="1" stop-color="#2538E0"/>
</linearGradient>
<linearGradient id="paint24_linear" x1="348.406" y1="336.949" x2="348.406" y2="344.785" gradientUnits="userSpaceOnUse">
<stop stop-color="#9711C6"/>
<stop offset="1" stop-color="#2538E0"/>
</linearGradient>
<linearGradient id="paint25_linear" x1="348.673" y1="354.265" x2="348.673" y2="362.964" gradientUnits="userSpaceOnUse">
<stop stop-color="#9711C6"/>
<stop offset="1" stop-color="#2538E0"/>
</linearGradient>
<linearGradient id="paint26_linear" x1="383.552" y1="337.753" x2="383.552" y2="351.334" gradientUnits="userSpaceOnUse">
<stop stop-color="#9711C6"/>
<stop offset="1" stop-color="#2538E0"/>
</linearGradient>
<linearGradient id="paint27_linear" x1="346.62" y1="348.51" x2="346.62" y2="353.985" gradientUnits="userSpaceOnUse">
<stop stop-color="#9711C6"/>
<stop offset="1" stop-color="#2538E0"/>
</linearGradient>
<linearGradient id="paint28_linear" x1="349.2" y1="346.38" x2="349.2" y2="352.28" gradientUnits="userSpaceOnUse">
<stop stop-color="#9711C6"/>
<stop offset="1" stop-color="#2538E0"/>
</linearGradient>
<linearGradient id="paint29_linear" x1="350.95" y1="365.78" x2="350.95" y2="369.61" gradientUnits="userSpaceOnUse">
<stop stop-color="#9711C6"/>
<stop offset="1" stop-color="#2538E0"/>
</linearGradient>
<linearGradient id="paint30_linear" x1="396.485" y1="338.914" x2="396.485" y2="345.88" gradientUnits="userSpaceOnUse">
<stop stop-color="#9711C6"/>
<stop offset="1" stop-color="#2538E0"/>
</linearGradient>
<linearGradient id="paint31_linear" x1="397.564" y1="342.51" x2="397.564" y2="350.719" gradientUnits="userSpaceOnUse">
<stop stop-color="#9711C6"/>
<stop offset="1" stop-color="#2538E0"/>
</linearGradient>
<linearGradient id="paint32_linear" x1="362.482" y1="372.35" x2="362.482" y2="385.23" gradientUnits="userSpaceOnUse">
<stop stop-color="#9711C6"/>
<stop offset="1" stop-color="#2538E0"/>
</linearGradient>
<linearGradient id="paint33_linear" x1="376.722" y1="338.98" x2="376.722" y2="350.11" gradientUnits="userSpaceOnUse">
<stop stop-color="#9711C6"/>
<stop offset="1" stop-color="#2538E0"/>
</linearGradient>
<linearGradient id="paint34_linear" x1="338.185" y1="274.189" x2="338.185" y2="303" gradientUnits="userSpaceOnUse">
<stop stop-color="#9711C6"/>
<stop offset="1" stop-color="#2538E0"/>
</linearGradient>
<linearGradient id="paint35_linear" x1="286.611" y1="178" x2="286.611" y2="213.35" gradientUnits="userSpaceOnUse">
<stop stop-color="#9711C6"/>
<stop offset="1" stop-color="#2538E0"/>
</linearGradient>
<linearGradient id="paint36_linear" x1="296.115" y1="155.88" x2="296.115" y2="178.08" gradientUnits="userSpaceOnUse">
<stop stop-color="#9711C6"/>
<stop offset="1" stop-color="#2538E0"/>
</linearGradient>
<linearGradient id="paint37_linear" x1="308.115" y1="141.76" x2="308.115" y2="156.23" gradientUnits="userSpaceOnUse">
<stop stop-color="#9711C6"/>
<stop offset="1" stop-color="#2538E0"/>
</linearGradient>
<linearGradient id="paint38_linear" x1="452.025" y1="530.38" x2="452.025" y2="533.031" gradientUnits="userSpaceOnUse">
<stop stop-color="#9711C6"/>
<stop offset="1" stop-color="#2538E0"/>
</linearGradient>
<linearGradient id="paint39_linear" x1="454.11" y1="557.92" x2="454.11" y2="562.77" gradientUnits="userSpaceOnUse">
<stop stop-color="#9711C6"/>
<stop offset="1" stop-color="#2538E0"/>
</linearGradient>
<linearGradient id="paint40_linear" x1="433.16" y1="545.52" x2="433.16" y2="547.081" gradientUnits="userSpaceOnUse">
<stop stop-color="#9711C6"/>
<stop offset="1" stop-color="#2538E0"/>
</linearGradient>
<linearGradient id="paint41_linear" x1="436.125" y1="578.364" x2="436.125" y2="584.671" gradientUnits="userSpaceOnUse">
<stop stop-color="#9711C6"/>
<stop offset="1" stop-color="#2538E0"/>
</linearGradient>
</defs>
</svg>
