<svg xmlns="http://www.w3.org/2000/svg" viewBox="0 0 626 690"><title>header-img</title><g id="Layer_2" data-name="Layer 2"><g id="Layer_1-2" data-name="Layer 1"><path d="M626,327c-2.68,4.19-7.46,6.13-10.5,10.15-2.62,3.46-8.38,2.62-10.15-1.2-1.41-3-3.25-3-5.84-2.93q-11.65.14-6.09-10.07a2.88,2.88,0,0,0-.25-3.56c-1.65-2.38-1.27-4.76.37-6.93a6,6,0,0,1,7.13-2.25c3.21,1.33,5.07.46,7.2-1.88a8,8,0,0,1,8.24-2.36,5.22,5.22,0,0,1,3.42,6.06c-1.18,5.74,2.38,7.39,6.46,9Zm-26.61-14.54c-3.84,0-5.56,2.59-3.48,5.59,1.66,2.4,1.28,3.76-.63,5.45-1.67,1.48-3.17,3.28-1.82,5.63s3.78,2.31,5.81,1.65c3.82-1.24,6.25-1.16,7.72,3.46,1.07,3.37,5.09,3.87,6,1.06,1.4-4.53,5-5.54,8.31-7.45s3.47-6.23.21-6.93c-5-1.07-4.42-3.67-3.88-7.39.62-4.24-2-5.75-5.89-3.8a7.63,7.63,0,0,0-2.43,1.7c-2,2.41-4.18,3.6-7.22,1.62A7.42,7.42,0,0,0,599.39,312.46Z"/><path d="M0,113c1.56-.88,2.47-2.83,4.48-2.9s2.31-1.24,2.45-2.93c.27-3.25,1-6.47,4.77-7.34,3.4-.79,5.21,1.53,6.52,4.21.85,1.74,1.94,1.57,3.63,1.31,5.3-.82,7.75,2,6.62,7.31a22.92,22.92,0,0,0-.9,6.73,5.55,5.55,0,0,1-7.66,5.72c-2.42-1-3.41,0-5,1.22-4.58,3.46-8.26,2.23-9.87-3.25-.79-2.69-3.75-3-5-5.09Zm21.44,10.86c2.71-.23,4-1.76,3-4-1.15-2.65-.61-4.58,1-6.74a4.37,4.37,0,0,0,.1-5.16,2.78,2.78,0,0,0-3.61-.84c-3,1.83-3.94.2-5-2.13-.69-1.49-1.75-3.1-3.67-2.9-2.18.23-2.87,2.21-3.19,4-.59,3.32-1.62,5.94-5.56,6.4A2.91,2.91,0,0,0,2,115.21a2.47,2.47,0,0,0,2,2.95c2.33.57,3.19,1.88,2.82,4.33-.24,1.61-.18,3.65,1.66,4.33a3.91,3.91,0,0,0,4.73-1.93c1.69-2.8,3.48-4.2,6.47-1.67A5.3,5.3,0,0,0,21.44,123.86Z"/><path d="M25,690c10.84-25.72,24.35-50.15,36.84-75.16l-2.91,6.35.75.39,11.11-17.75.38.33c-2.81,5.25-5.34,10.68-8.49,15.73-12.93,20.78-23.78,42.63-33.92,64.86-.82,1.8-1.83,3.5-2.76,5.25Z"/><path d="M345.88,21c-1-3.3-2.22-6.56-3.07-9.91-.43-1.69.15-3.86,2.06-3.9,5-.11,6.35-4.48,9.14-7.16h4c2,3.33,2.83,7.36,7.73,8.37,2.07.43,2.22,4.28,1,5.16-3.68,2.56-1.87,10.54-7.63,9.42-3.84-.74-7.5-.63-11.23-1-.73-.06-1.41-.76-2.1-1.16,1.49-.06,3.31.41,4.38-.29,2.69-1.74,4.65-2.22,7.17.5,1.58,1.71,3.74.75,3.75-1.71s1.19-3.77,2.77-5.36c2.52-2.53,1.63-5-1.92-5.19-2.51-.11-2.64-1.38-2.82-3.09s-.82-3.06-2.5-3.33a3,3,0,0,0-3.12,2.1c-1.2,2.81-3.12,3.94-6.21,3.78-1.84-.1-3.87,1.59-2.36,3.1C348.07,14.54,345.64,17.79,345.88,21Z"/><path d="M175.23,458.23A102.57,102.57,0,0,1,147,452.09c-13.34-4.94-16.15-13.27-8.58-25.32,3.36-5.36,7-10.61,12.76-13.77,1.43-.78,2.25-1.55.68-2.87-14.06-11.77-11.78-27.39-9.4-42.57a511.41,511.41,0,0,1,23.67-93.19c3.93-11,9.83-21.1,14.89-31.58,1.47-3,2.21-5-1.93-6.72-4.86-2-7.27-6.72-8.84-11.58-9.38-29.12,12.87-68.22,49.44-66.49a37.23,37.23,0,0,1,19.74,6.21c2.08,1.43,3,1.67,4.4-.94,35.41-68.18,130.12-74.67,179.57-23,5.19,5.41,5.26,5.34,9.93-.69,5.24-6.77,10.81-13.16,19-16.51a3.14,3.14,0,0,0,2.27-3.38,40.24,40.24,0,0,1,.3-5c1.37-14,9.72-21.36,23.65-20.53,2.94.18,4.59,0,5.94-3.31,3-7.5,16.41-14.11,24.34-12.67,1.13.21,2.7.38,3.23,1.15,3.44,5,8.65,4.67,13.83,5.6,6.85,1.23,12.39,5.11,13.14,13,.19,2,1.38,2.31,2.8,2.86,7.9,3.07,9.51,6.15,7.16,14.52-.6,2.13.42,3.3,1.57,4.32,8.19,7.26.06,21-8.73,21.33-2.48.09-3.3,1.21-4.25,3.21-6.13,12.93-16.5,20.44-30.43,23.14-1.63.32-2.76.54-3,2.52-1,7.67-5.07,14-8.93,20.42a1131,1131,0,0,1-93.62,132.45c-5.91,7.2-9.67,15.48-13.52,23.79-4.34,9.38-8.8,18.7-15.53,26.67-1.51,1.79-1.34,3.49-1,5.56a100.49,100.49,0,0,1-2.3,45.49c-4.41,15.44-13.3,27.24-26.07,37.25C326.81,474.21,309,480.23,288.57,480c-8.74-.1-8.7.15-11.92,8.3-1.84,4.65-3.47,9.91-9.63,10.16-6,.24-9.16-4.17-11.82-8.71a34.66,34.66,0,0,1-3.06-7.35c-.77-2.51-1.11-5.16-1.73-8.19-2.76,1.2-4,3.62-5.29,5.73a80.65,80.65,0,0,1-14.6,17c-15.17,13.68-31.06,26.3-49.35,35.61a13.61,13.61,0,0,0-7.17,9.09,24.51,24.51,0,0,1-10.69,14.56c-6.78,4.34-13.31,2.83-17.37-4.3-5.26-9.24-5.18-19.05-2.36-29,1.87-6.63,5.5-12.42,8.91-18.35-1.91-.92-3.37.47-5,.46-3.71,0-6.15.66-7,5.41a10.43,10.43,0,0,1-10,8.48c-8.83.34-13.37,5.45-16.78,12.71-3.28,7-6.25,14.15-11.45,20.06C107.1,542,111,532,116.9,523c2.35-3.61,6-4.52,9.93-4.85,4.18-.36,7.76-1.78,10.43-5.12,1.41-1.76,2.48-3.62,1.41-5.94-1.46-3.13.52-3.58,2.76-3.25,9.2,1.36,14-3.53,17.63-11.25,3.72-8,8.25-15.58,12.27-23.43C173.05,465.75,174.78,462.31,175.23,458.23Zm9.19-238.35c3.91-3.67,1.68-8-.13-11s-4.88.57-7.42,1.1a5.62,5.62,0,0,1-1,0c1.63-2.08,3.94-2.77,6.36-3.55,3.61-1.16,2-4.71,2.68-7.19.45-1.6-.47-2.53-2.13-2.54-3,0-6.81-.07-8.14,2.58-1.69,3.36-2.61,7.47-1,11.42.08.19.94.06,1.44.08-4.25,5.92-.91,11.09,1.3,17.07l4.54-5.38a13.37,13.37,0,0,1-1.35,3.18c-3.3,4.25-.23,6.36,2.85,8.15,4.15,2.42,3.26-2.24,4.59-3.67s1.84-3.13,2.85-4.65c1.16-1.75,2-3.23.11-5.23S186.4,218.28,184.42,219.88Zm4.18-34.25c2.49.64,3.52-1.41,4.86-2.74a32.22,32.22,0,0,1,19.17-9.7c2.71-.33,4.28-1.08,3.2-3.83-1-2.47.92-7-4.52-6.63-7.28.49-8.12,1.7-5.47,8.53.07.17-.24.49-.39.76-1.53-1.06-1.6-2.87-2.23-4.36-.39-.92-.5-2.15-1.87-1.72-3.68,1.14-7.31,2.69-9.67,5.75-.63.82-.15,1.71-2,2.19-3.93,1-6.54,4.68-7.25,8.17-.65,3.23,4,1.4,5.66,3,.22.22.42.47.65.72-3,.65-6.25-2.91-8.84.17a16.24,16.24,0,0,0-4.09,10.46c2.24-.45,4-.92,5.81-1.15C186.32,194.68,189.29,190.63,188.6,185.63ZM145.33,435.24c.18-1,.62-.15,1-.12a57.06,57.06,0,0,1-2,5.47c-2,4.08-.73,6.15,3.51,7.73A69.29,69.29,0,0,0,174.11,453c1.59,0,3.37.4,4-2,.63-2.55,1.54-5,2.46-8-5.14.39-9.74-1.55-14.26-1-4.34.51-7.9-1.18-11.72-2.18-3.12-.82-6.59-1.4-8.3-4.81a51.65,51.65,0,0,0,21.41,6c4.43.28,10.17,2.1,13,0,3.14-2.31,3.44-8.3,5.31-12.54,1.62-3.67.34-4.82-3.25-5.35-7.4-1.11-14.77-2.55-21.36-6.39s-7.26-3.77-12.59,1.79a42.06,42.06,0,0,0-3.55,4.18c-4.91,6.68-4.89,6.7.24,12.51-2.45-.08-4.18-4.5-6-2.57-2.57,2.71-1.92,6.79-.2,10.24a2.58,2.58,0,0,0,2.27,1.71ZM347.1,292.92c2.81,3.39,6.16,4.51,10.56,3.23,3.82-1.11,7.88-1.34,11.73-2.36,6-1.61,12.26-2.85,17.6-6.47-7.71.4-15.25,1.93-22.94,1.64-4.73-.18-9.69-1.24-10.84-6.28-1.43-6.31-5.62-6.39-10.33-6.39-2.5,0-5,.3-7.49.25-22.71-.5-42.18-8-53.73-28.59-9.83-17.51-15.46-36.49-11.64-57.05,6.75-36.37,25-63.71,60.87-77.16,1.38-.52,3.31-.45,4.09-2.64-34.42,3.27-63.32,16.15-82.26,46.2-11.63,18.46-15.89,38.68-11.85,60.84,11-8.87,18.47-7.95,26,2.71a35.38,35.38,0,0,1,6.53,15c1.63,10.5,2,20.73-9.52,26.8,22.07,23.9,49.57,33.8,81.14,34.13,3.78,0,2.26-2,1.92-3.75Zm-164.41-36c-2.28-3-3-.74-3.94,1.12-9.8,20.33-16,41.89-21.75,63.62-.64,2.42.17,3.67,2.51,4.48,4.92,1.72,7.92,0,9.31-5.72,1.83-7.53,2.38-15.44,6.56-22.28-1.67,7.07-3.43,14.13-5,21.22-1.82,8.26-3.87,9.82-12,8-2.25-.51-2.57.2-3.44,2-2.35,4.86,2.85,3.73,4.11,5.65-3.89-1-5.87.53-6.12,4.56-.09,1.45-.83,2.87-.93,4.32-.11,1.71-1.66,4,.13,5,2,1.25,4-.64,5.79-1.72,1.62-1,2.05-2.33,2.1-4.12a34,34,0,0,0-1.17-8.28c4.59,6.71,2.82,14.66-4.2,15.46-.81.09-1.58.55-2.39.63-2.08.21-2.09,1.77-2.29,3.25-.32,2.34,1.47,1.65,2.61,1.77a3.78,3.78,0,0,1,3.61,2.85l.12-.09c-5.85-2.74-7.44-1.84-8.37,4.67-1,6.76-2,13.5-2,20.36,0,14.43,7.77,25.4,21.33,30.46,3.3,1.23,4,.56,3.77-2.82-.55-8.71-.58-17.43,1.63-26a175.86,175.86,0,0,0-.69,22.86c.21,6.27,1,8.74,7.34,9.37a41.58,41.58,0,0,1,5.36,1.15c3,.7,4.69.25,5.81-3.27,4.91-15.36,10.17-30.61,15.48-45.83.92-2.64.88-4.49-.91-6.8A48.34,48.34,0,0,1,195,332.14c.18-23.46,8.53-43.88,23.9-61.43,7.18-8.2,14.4-16.47,25-20.54-3.06-4.5-8.56-4-11.73-7.38l-.09.11c2,.63,4.09,1.27,6.14,1.88s3.35.51,2.62-2.2c-1.71-6.41-1.69-13.11-3.74-19.51-3.34-10.46-3.18-10.18-14.08-12-12.29-2-21.05,2.35-26.84,13.12-4.48,8.32-8.82,16.72-13.27,25.06A8.69,8.69,0,0,0,182.69,256.94Zm282-121.68a18.44,18.44,0,0,1-6.18-5.7c-2-2.62-3.55-2.27-6.15-.83-8.2,4.52-13,12.22-18.81,19-1.52,1.8-1.07,3.45.28,5.36,18.23,25.64,23.07,65.57,1.37,97.89-11.74,17.49-25.81,32.19-45.69,40.29-3.86,1.57-7.26,2.68-4.42,5.56-1.54-3.86-5.75-1.76-10-.45a93,93,0,0,1-26.52,4.25c-4.7,0-8.25.71-10.1,5.39-.3-1.87,3.2-5-1.83-5.32a119,119,0,0,1-41.84-10.27c-3.72-1.69-1.49,1.58-2.34,2.55-2.6-3-4.35-6.64-8.3-8.26A46.91,46.91,0,0,1,271,276c-8-7.15-15.88-14.46-23.77-21.74-.73-.67-1.31-1.83-2.39-1.25-5,2.67-9.92,5.47-13.86,10.17,3.49,1.29,6.87,1,8.28,4.34-8.95-4.38-9.88-4.16-16.15,3.73-1.44,1.82-3,3.57-4.34,5.45-3.67,5.08-2.17,9.57,3.79,11.56,5.67,1.9,13.24,0,16.93-4.31s3.77-9.24.13-16.11c6.37,4.72,5.68,14-1.42,19.19-7.56,5.51-15.64,4.59-24.62-2.9-.48.67-.93,1.35-1.45,2-2.8,3.42-1.5,5,2.38,5.75,3.17.65,6.54.82,9.3,2.93-3.76.36-7.06-1.46-10.52-2.39-3.19-.86-5.18-.49-5.85,3.2q8.09,2,16.21,4.11c1.48.38,2.72.11,3.23-1.43s-.81-1.86-1.86-2.37a6.3,6.3,0,0,1-1.37-1.28c2,.63,5.2.34,4.47,3.68-.79,3.64-3.41,3.16-6.29,2.07a53.35,53.35,0,0,0-8.67-2.18c-6.84-1.32-7.27-1-9.57,5.78a72.43,72.43,0,0,0-2.09,7.18c-2.82,12.49-3.89,25,.06,37.49.93,3,1.65,4.65,5.77,3.66a24.78,24.78,0,0,1,12.76.81c2.75.83,2.81,1.66,2.27,3.95-4-3.57-8.43-5.33-13.74-4.14-3.34.75-4.66,2.12-2.34,5.46a39.76,39.76,0,0,0,15.58,13.72c21,10,42.08,8.09,62.77-.84,3.33-1.44,6.45-1.64,9.71-2.11,6.5-.94,12.23-7.62,11.66-13.9,0-.4-.36-1-.66-1.1-6.3-1.6-2.56-2.84,0-4.48,1.75-1.11,2.7-4.46.79-4.47-5.34,0-2.27-2.41-1.55-4,1-2.11,2.33-6.17.81-6-5.4.44-6.57-3.65-9.41-6.26-1.95-1.79-5.11-1.21-7.4.69-1.66,1.38-3.21,2.9-4.81,4.36-1.26,1.15-2.43,1.93-4.42,1.3-7.87-2.48-16-2.75-24.21-2.77-1.42,0-3.42.33-3.42-1.73,0-1.54,1.82-1.66,3.13-1.81a52.35,52.35,0,0,1,15.92.56c6,1.14,12,3.11,16.64-3.25,1.27-1.76,4.66-1,5.28-4,1.54-7.39,7.29-9.28,13.67-10.32,7.76-1.26,15.61-1.31,23.42-1.54,4-.12,7-.9,8.86-4.65-1.23,3.24-.45,4.31,3.27,4,12.63-1,25.3-.41,37.92.28,10.19.56,13.85,3.79,15.84,13,2.08-2.27,4-4.28,5.83-6.39,13.81-16,25.38-33.81,38.62-50.3,1.58-2,.83-3.6.33-5.54-2.3-9,3.52-18.43,12.57-19.06,4.45-.31,6.67-2.35,8.67-5.43,9.4-14.53,18.71-29.11,28.05-43.68C494,185.94,498,179,500.83,171.51c.4-1.08,1.84-2.5.37-3.57s-3.13-1.8-2.06-3.79c1.2-2.23,3.64-2.15,5.76-2.09,13.4.38,21.61-8.09,29.13-17.38a6.93,6.93,0,0,0-3.91-11c-5.55-1.22-8.8-6.87-14.76-7-.63,0-1.32-1-1.82-1.61-.92-1.16-2-1-3.35-1.16-6.69-.88-12.78,1.76-19.15,2.69a20.64,20.64,0,0,1-8.41-.59c-1.45-.39-3.16-1-2.92-2.83s2-1.93,3.56-1.92c2.83,0,5.66.16,8.48,0,3.9-.21,7.93-.66,9.31-5.17,1.46-4.75-.67-8.51-4.28-11.4-5.27-4.23-11.5-5.8-18.16-5.95-12.31-.27-17.6,4.37-19.52,16.5-1.21,7.65-1.56,14.8,6.15,19.53Zm-304,413.46c5.53,2.27,7.23-1.86,8.3-5.59,2.39-8.35,7.87-13.34,15.35-17.27a166,166,0,0,0,26.9-18.11c1.58-1.27,2.32-4.3,2.91-4.29,3.31,0,5.14-2.21,7.34-3.86,13.11-9.8,22-23.29,30.08-37S268.46,435.48,277,422c2.32-3.68,5.24-6.54,9.83-6.85a4.5,4.5,0,0,0,3.6-2.24,73.1,73.1,0,0,0,9.27-18.72c.87-2.48,0-3.1-2.42-3.34a105.54,105.54,0,0,1-12.32-1.9c-3.33-.73-6.93-2.3-7.55-5.79-.82-4.57-3.18-3.37-5.93-2.78-20.69,4.41-40.41,2.36-58.58-9.16-2.47-1.56-3.16-1.12-4,1.49-3.52,10.69-6.7,21.52-10.33,32.11-3.7,10.8-7.42,21.69-11.26,32.48C184,446.42,181.49,456,178,464.93c-5,12.77-12,24.75-19,36.63a10.15,10.15,0,0,0-1.13,8.62c-1.25-.85-1.84-3.22-3.19-.84-1.51,2.66-3.91,4.79-3.68,8.45.2,3.2,0,6.7-3.59,8.63-1.05.56-1.2,2-1.27,3.13a49.88,49.88,0,0,0,.69,14.42c.54,2.38,1.51,3.38,4.06,3.14,3.45-.32,6.94-.28,10,1.8-1.89.48-3.56-.87-5.34-.72-2.07.17-5.41-1.37-5.81,1.54-.35,2.5,2.52,3.93,5.11,4.55a8.17,8.17,0,0,0,4.4-.26C162.49,553,163.57,551.4,160.74,548.73ZM304.16,435.42c-3.35,1.15-5-3.16-7.65-.1-7.89,9.16-18.16,12.86-30,12.36-1.75-.07-1.9,1-2.41,1.88q-4.63,8-9.14,16.06c-.72,1.28-1.71,2.57-.86,4.18,1.93,3.63,1.94,7.72,2.73,11.61.7,3.43,1.63,5.74,5.86,3.94,1.83-.78,3.92-.2,5.92,0,1.8.15,3.4,3.8,5.4.42,1.18-2,3.46-4.18,3.22-6-.76-5.84,2.94-4.56,6.09-4.61,18.66-.29,37-1.56,52.54-13.92,2.68-2.13,4.2-3.69,1.35-6.9,2,2.29,3.73,3.2,6.22,1.14,8.56-7.09,16.16-14.79,19.87-25.71a152.89,152.89,0,0,0,5.85-24.21c.63-3.77.68-6.62-4.59-6.49,1.83-1.42,5.21.62,5-2.46-.43-5.47,0-11.09-2-18-6,13.72-16.24,15.59-28.33,14.55-11.11-1-22.3-.91-33.46-1.28-1.91-.06-4-.7-4.72,2.23-1.81,7-5.36,13.21-9.21,19.24-1,1.52-1.89,2.5.23,3.92a12.7,12.7,0,0,1,5.45,9.74C297.81,431.19,299.29,434.15,304.16,435.42Zm5.93-114.9a9.47,9.47,0,0,1-2,.22c-4.47-.77-5.65,2.12-6.48,5.6s.47,5.17,4,5.83c2.12.4,3.21,2.48,3.24,4.58.09,5.93,1.47,11.93,0,17.78-1.1,4.29-1.71,8.77-4,12.72-6.14,10.74-5.66,12.25,6.47,13.75l22.38,2.75c-2,1.61-3.64.82-5.14.65-6.77-.77-13.55-1.6-20.29-2.6-8.25-1.22-9.13-2.53-7.44-11.46-4.57,3.42-11,1.23-14,7-.53,1-.81-.43-1.12-.49-3.11-.61-6.2.27-7.53,3s1.15,4.59,3.34,5.94A24.48,24.48,0,0,0,292,388.91c18.41,1.94,36.9,1.95,55.38,2,7.12,0,13.73-2.77,16.32-9.52,3.34-8.72,9.77-15.33,13.84-23.45,4.55-9.07,8.86-18.25,13.53-27.25,5.57-10.73,1.77-17.8-10.35-18.76-23.49-1.87-46.92-.27-70.34,1.38-3.33.23-6.91.28-10.23,2.17C302.3,319.37,305.83,320.08,310.09,320.51ZM352.71,118a22.11,22.11,0,0,0-4.24.27c-3,.87-7.93-.32-8,4.09s4.83,3.94,7.83,4.43c36.23,5.84,60.62,26.09,74,60.06a58.35,58.35,0,0,1,4.09,20.4c.06,2.62,1,5,4.28,5.11,3,.11,4.51-1.7,5.32-4.31a21,21,0,0,0,.45-10.37Q428.9,158.68,397,135C383.59,125.07,368.77,118.94,352.71,118ZM218,175.89c-12.43.77-22.58,5.65-28.31,17.22-3.65,7.36-4.16,15.05.74,22.31,2,2.93,3.93,3.65,6.32.08,5.23-7.8,12.73-10.88,22-9.76A121.86,121.86,0,0,1,231,207.44c2.92.66,3.72.36,3.61-2.88a84.66,84.66,0,0,1,.73-13.93c1.19-9,.22-10.83-8.51-13.46A25.63,25.63,0,0,0,218,175.89Zm33.2,39.18c7.32,8.5,11,17.51,10.66,28-1.81-8.68-3.59-17.32-9.76-24.32-3-3.38-5-3.55-7.27.07-6.91,10.91-.18,34.09,11.51,39.62,5.34,2.52,9.77,1.1,12.63-4.08s2.63-10.6,2-16.08C269.52,226.44,261.75,217,251.16,215.07ZM485.89,94.49c3.16,1.18,6,2,8.69,3.3,8.7,4.19,11.94,10,10.73,19.55-.34,2.7.89,2.74,2.74,2.65,2.23-.12,3.09-1.89,3.78-3.51a45,45,0,0,0,2.22-28.27c-1.19-5.21-4.71-7.19-10.12-6.55C495.64,82.64,490.35,87.8,485.89,94.49Zm49.25,7.37C535.26,93,529.8,88,521.68,87.8c-2.66,0-3.35.67-3.12,3.4.8,9.16.53,18.29-2.89,27-1.22,3.09.73,4,2.72,4.7,2.77,1,5.25-.17,7.27-2.11A30.37,30.37,0,0,0,535.14,101.86ZM266.71,445.35c8.69-2.21,16.39-4.55,23.21-9.16a10.11,10.11,0,0,0,2.72-2.86c2.73-4.24,1.29-10.66-2.86-13.25-3.66-2.29-6.62-1.1-10,4.25C275.52,431,271.38,437.81,266.71,445.35ZM547.07,109.92c0-4.56-3.37-5.32-6.38-6-3.45-.75-2.27,2.5-2.73,4a36,36,0,0,1-8.64,14.37c-1.19,1.27-4.06,3-1.95,4.7,2.29,1.88,5.72,5.36,8.69,2.36A41.25,41.25,0,0,0,547.07,109.92ZM550.9,127a8.58,8.58,0,0,0-.28-1.62c-.59-1.75-1.27-3.82-3.08-4.3-2.2-.58-2.17,2-3.08,3.22-1.92,2.5-3.69,5.12-5.43,7.75-.81,1.23-3,2.14-1.29,4.14a4.58,4.58,0,0,0,4.94,1.51C546.66,136.72,550.85,131.46,550.9,127ZM456.34,243c-6.52-.17-10.59,2.58-13.45,7.22a10.93,10.93,0,0,0-.31,12C447.85,256.28,451.5,249.82,456.34,243ZM220,162.08c-1.79.31-4.06-.91-4,2.34.06,6.32,2.54,9.93,7.88,9.06,4.09-.67,3.85-6.25,3.74-8.75C227.47,161.3,222.46,163.3,220,162.08Zm20.52,8.53c-1.56-2.94-4.11-4.13-6.7-5.24-2-.87-4.19-1.77-5,1.43-.76,2.82-3.59,5.91.25,8.37,1.48.95,3.58,3.25,5.5.43A15.83,15.83,0,0,1,240.53,170.61Zm187.41,58.92c.28-1.58-.16-2.91-2.07-3.13s-8.31,6.79-8.31,9.24a4,4,0,0,0,3.92,4.29C425,240.27,427.84,235.69,427.95,229.52ZM265.67,486.22c-3.58,0-5.69,1-5.54,2.36.25,2.3,4.7,5.76,7.07,5.37s4.43-1.84,4.28-4.15C271.24,486.2,267.84,486.67,265.67,486.22Zm32.59-170.13c-2,2.34-4.69,4.6-3.5,7.92.36,1,3.86,2.93,5.55,1.19C303.66,321.76,301.58,318.77,298.26,316.09Zm28-180.74c-1.68.33-3.23.95-3.25,3s1,3.5,3.17,3.7,3.12-1,3.19-2.92S328.53,135.67,326.25,135.35Zm-27.2,63.12c-.07-1.88-1.13-2.66-2.9-2.44s-3.27.82-3.31,2.92c0,1.94,1.31,2.55,2.94,2.45S299,200.58,299.05,198.47Zm35.87,47.91a2.89,2.89,0,0,0-5.76.08,2.47,2.47,0,0,0,2.84,2.63A2.87,2.87,0,0,0,334.92,246.38Zm-19.23-64.57c.34-1.12-.06-1.73-1.05-1.79-2.38-.16-3.5,1.45-4.25,3.33-.43,1.05.43,2.43,1.17,2.21C313.44,185,314.62,183.3,315.69,181.82Zm89.72,88c0-1.3-.45-2.5-2.07-2.68a2.28,2.28,0,0,0-2.63,1.81c-.33,1.63.91,2.41,2.22,2.82S405.08,271.34,405.41,269.83Z"/><path d="M421.59,583.94c-15-.57-27.23-7.51-34.6-22.14-1.24-2.47-2.54-3.82-5.45-4.16a59.58,59.58,0,0,1-10.63-2.56c-3.21-1-5.81-3-5.66-6.74s3.23-5.16,6.34-6.14a13.24,13.24,0,0,1,4.86-1c4.79.42,6.33-1.88,7.4-6.32a39.28,39.28,0,0,1,38.83-30.59c17.11.05,33.36,13.31,37.65,31,.76,3.15,1.23,4.66,5.18,3.83a15.74,15.74,0,0,1,14.7,4.46c4.89,4.81,4,11.21-1.93,14.62-4.76,2.71-10.11,3.37-15.4,3.66a9.12,9.12,0,0,0-7.75,4.29C447.27,577.27,436.66,583.66,421.59,583.94Zm-5.21-60.81c11.65,2.17,23.54,2.28,35.25,3.93.74.1,1.76.45,2.16-.5.47-1.12-.43-1.89-1.22-2.42a15.56,15.56,0,0,0-2.68-1.19c2.29-2-.22-2.95-1.07-3.91-16-18-49.27-12.63-59,9.42-3.36,7.64-3.36,7.63,4.78,7.58a12.38,12.38,0,0,1,1.78.23c-2.94,2.54-8.14-2.23-9.91,2.88-1.23,3.56-.48,7.56-.13,11.39.32,3.41,1.75,4.87,5.26,5.08,10.46.6,20.89,1.76,31.36,2.17,10.8.43,21.65.78,32.46-1.74L450,554.54c2.63-1.92,7.24,3.12,8.4-3.31.88-4.86-3.53-3.2-5.26-5.11,6.47.29,6.56.28,5.74-5.89-.35-2.62-1.24-5.16-1.76-7.76-.63-3.15-2.62-4.24-5.65-4.48-8-.61-15.93-1.11-23.81-2.26C423.86,525.18,419.54,526.41,416.38,523.13ZM389.11,559c6.95,15,21.16,23.17,36.65,21.85,12.15-1,25.15-10.61,26.53-18A331.4,331.4,0,0,1,389.11,559Zm74.08-2.58a32.38,32.38,0,0,0,4.84-.58c3.58-.91,8.93-.43,9.47-4.88.58-4.83-4.78-5.68-8.35-7.11-7-2.78-7-2.67-7.84,4.41a55.51,55.51,0,0,1-1,5.9C459.85,556.29,460.53,557,463.2,556.47Zm-80.36-7.31c-1.14-1.82,1.78-5.85-2.13-6.33a17.78,17.78,0,0,0-11,2.31c-3.11,1.83-3,4.7.22,6.54,2.47,1.41,5.29,1.86,8.07,2.33C381.63,554.62,385.37,555.4,382.84,549.15Z"/><path d="M114.25,304.27c-21.06-.08-37.31-16.66-37.27-38,0-20,17-37.07,37.46-36,22.44,1.16,37.44,13.62,37.65,36.7C152.28,288.15,135.61,304.36,114.25,304.27Zm-9.71-22.05c-9.28-2.85-11-8.63-4.69-15.82a22.39,22.39,0,0,0,2.76-3.53c3.12-5.5,1-11.77-4.83-14.73-7.26-3.68-11.32-2.38-14.24,4.82A36.62,36.62,0,0,0,81.61,274c.62,3.27,2.09,4.35,5.44,4,8.85-.83,8.88-.7,11,7.94a13.79,13.79,0,0,0,11.14,10.84c4.65,1,5.88-.44,4.76-5,1.39.9,3.33,1.89,2.9,3.61-.53,2.11-2.85,2.59-4.85,2.9-6.48,1-13.17-4.11-15.28-11.56-2.43-8.56-3.84-9.25-12.43-5.71,5.93,11.35,14.83,18.25,27.75,19.17,11.2.8,20.69-2.76,28-11.84-8.67-4.19-9.46-5.72-6.18-11.21a4.7,4.7,0,0,1,0,1.48c-1.33,3.86.51,5.9,3.9,7.3,3.69,1.52,5.16-.84,6.54-3.46,6.07-11.47,5.09-22.76-1.24-33.71-5.44-9.4-6.64-9.34-12.24-.33-6.9,11.1-6.79,12.17,1.63,22.34,1.55,1.87,3.51,3.85,1.29,6.56.12-3.3-2.49-4.91-4.4-6.9-6.83-7.13-7.3-10.26-2.47-19a69.87,69.87,0,0,1,5.27-8.44c2.35-3.09,1.37-5.11-1.51-6.86a29.6,29.6,0,0,0-17.22-4A33.58,33.58,0,0,0,89,244.16c1.07,1.43,2.14.89,3.06,1,5.62.51,10.45,2.42,12.84,7.94s.42,10.34-3.7,14.41A12.45,12.45,0,0,0,99.9,269c-3,4.07-2.62,7.21,1.18,10.41C102.22,280.37,103.39,281.29,104.54,282.22Z"/><path d="M473.68,420.07c-14.17,0-26.31-11.69-26.21-25.3a23.91,23.91,0,0,1,24-23.57c14.8-.13,28.41,12.3,28.38,25.94C499.85,409.29,487.57,420,473.68,420.07Zm-18.55-30.33c-.62,2.61-4.7,2.12-4.59,5.84.27,8.92,7.64,17.92,17.25,20.24,10.13,2.45,22.1-3,26.16-11.88,2.71-5.95-1.42-21.72-6.78-25.86-6.19-4.78-19.69-5.54-26.17-1.37-1.58,1-3.8,1.93-2.43,4.6-5.94.37-5.74,5.39-7.71,9.81Z"/><path d="M41.83,391.25a51.39,51.39,0,0,1-7.5,12.45c-1.56,2-5,2-6.78,0-2-2.25-3.67-1.63-6-1-5.59,1.51-8.27-1-7.12-6.58.34-1.65-.27-2.33-1.07-3.42-3.07-4.21-1.26-8.67,3.81-8.74,2.93,0,4.47-.84,5.68-3.43s3.2-4.3,6.34-3.78c3,.49,4.14,2.89,4.47,5.35.36,2.71,1.61,3.69,4.12,3.84C40.82,386,41.45,388.27,41.83,391.25Zm-11.74,11.6c2.36.35,3.41-.68,3.37-1.75-.12-3.77,2.27-5.7,4.7-8s1.09-6.22-1.81-5.78c-4.07.62-3.82-1.77-4.2-4.13-.27-1.69-.57-3.44-2.45-4-2.18-.62-3.6.92-4.33,2.56-1.51,3.42-3.91,4.49-7.47,4a3.23,3.23,0,0,0-3.66,2,2.62,2.62,0,0,0,1.22,3.43c2.58,1.45,1.28,3.19.62,5.07s-1.71,4.69,1.19,4.8C22,401.25,27.19,396.45,30.09,402.85Z"/><path d="M551.45,488.17a14.81,14.81,0,0,1-7.23-1.68c-5.73-2.86-8.21-8.5-6-13.57s10.26-8,15.45-5.79c3.4,1.43,8.36,11.57,7.24,15.42C559.57,487.22,555.6,488,551.45,488.17Zm-.32-16.76c-.51,3.42-2.57,2.91-4.38,2.15-1.43-.6-1.91-4.23-4.33-1.27-1.86,2.27-3,4.62-1.33,7.69,2.55,4.7,10.35,7.07,14.67,4.29,1.49-1,2.7-2.05,2.15-4-.84-3-2.39-5.61-2.64-8.9-.12-1.62-3.1-3.07-5.43-2.17-1.07.41-2.55,1-2.72,2.56,0,.34.41.87.77,1.09C549.29,473.67,549.67,471.6,551.13,471.41Z"/><path d="M73.34,538.84c1.47,2.93,2.24,6.36,5.63,4.93,3.17-1.33,7.73-2.38,7.19-7s1.72-10.16-3.6-13.7c-5-3.33-7.22-3.34-12.07.46-.69.54-1.11,1.71-2.75,1.16,2.83-4.14,6.41-6.3,11.28-5.27,5.18,1.1,7.91,4.65,7.89,9.73a10.25,10.25,0,0,0,.7,2.82c1.79,6.71-2.06,12.29-9,13.18C75.45,545.54,74.12,544.14,73.34,538.84Z"/><path d="M70.79,603.82a458.71,458.71,0,0,1,25.84-44.93,1.51,1.51,0,0,1,1.3-.5c-6,9.54-11.41,19.35-16.85,29.15-3.13,5.64-5.73,11.61-9.91,16.62Z"/><path d="M107.1,502c8.49,1.64,8.47,1.63,3.31,8.87-1.15,1.61-2.74,3.38.29,4.76,1.73.79,1.29,2.08.83,3.37a35.15,35.15,0,0,1-5.33,10.32c.18-3.32,2-5.28,2.9-7.57s2.38-4.39-.81-6.37c-1.91-1.19-.6-3,.33-4.34,3.82-5.58,3.83-5.57-1.4-9.17Z"/><path d="M118.77,566.15c-1.22-2.5-2.73-2.63-4.69-.72a21.9,21.9,0,0,0-4.36,6c-.84,1.68-1.6,3.52-.48,5.18s2.92,1,4.51.38c.72-.27,1.72-.84,2,.45.44,2.2-1.07.75-1.74.83-5.92.75-7.51-1.07-5.63-6.7a15.39,15.39,0,0,1,4.82-7.4C115.76,562.1,117.89,562.34,118.77,566.15Z"/><path d="M64.19,577.43c.17,2-.7,3.28-2.71,3.36A2.33,2.33,0,0,1,59,578.23a2.88,2.88,0,0,1,2.91-3.29C63.86,574.74,64.08,576,64.19,577.43Z"/><path d="M107.23,501.85c-6.93-2.57-8-8.83-2.51-16.5-3.14,6.19-3.6,11.93,2.39,16.62Z"/><path d="M103.83,480c-4.92-3.58-5.33-8.89-.69-16-.63,2.69-1,4.57-1.51,6.43-.88,3.45-.69,6.56,2.49,8.86a.46.46,0,0,1,.1.43C104.17,479.88,104,479.94,103.83,480Z"/><path d="M227.16,592c-3.92-4.08-3.89-4.13,5.35-8.07-1.18,1.12-2.2,2.87-3.59,3.23C226.14,587.87,224.5,588.59,227.16,592Z"/><path d="M203.12,412.24l17,15.4C212.69,423.6,207.22,417.54,203.12,412.24Z"/><path d="M465.25,134.71l17.48,13.77a66,66,0,0,1-18-13.22Z"/><path d="M208.68,271.44c2.65-8.83,7.1-16.8,12.08-24.51Z"/><path d="M232.2,242.79c-6.78.29-11-4.43-15.48-8.5l15.39,8.61Z"/><path d="M156.23,358.81c1.69,6.53-1.19,10.18-7.52,8.84,5.9-.31,6.67-4.68,7.62-8.93Z"/><path d="M317.37,319.92,386,323.68l-.09,1.49L317.31,321Z"/><path d="M345.82,333.44c-6.43-3-13.11-3.05-19.52-4.26a83.16,83.16,0,0,0-10.89-1.05c-1.25-.07-3.3-1.06-3.49,1.4-.15,1.92,1.41,2.53,3,2.68,6.77.63,13.55,1.18,20.32,1.74a18,18,0,0,1,4.34.64,126.78,126.78,0,0,1-25.37-1.14c-2.14-.3-3.55-1.34-3.15-4.07s2.2-2.46,4-2.39c9.3.37,18.37,2.55,27.6,3.56C344,330.69,345.7,330.94,345.82,333.44Z"/><path d="M338.73,350.88c-6.22-4.27-13.54-4.74-20.46-6.59,7-.29,13.56,2,20.12,4.11a2,2,0,0,1,1.47,2.69c-.41,1.7-1.57,1.91-3,1.87a72.33,72.33,0,0,1-19.51-3.53C324.48,349.52,331.44,352.47,338.73,350.88Z"/><path d="M359.07,329c3.29-2.06,6.31-1.54,8.7,1.35s1.38,5.59-.74,8.06c-2.54,3-5.49,4-9,1.53l-.08.09a22,22,0,0,0,3.91,0c4-.67,5.39-3.82,5.14-7.21s-3-3.31-5.51-2.12c-2.11,1-.92-2.31-2.53-1.82Z"/><path d="M341.28,342.2c-.72,1.75-2.29,1.89-3.78,1.74a128.28,128.28,0,0,1-25.65-5.43c7.47,1.26,15,2.37,22.39,3.86a16.23,16.23,0,0,0,7.15-.09Z"/><path d="M341.39,342.28c-1.36-2.94-4.16-2.92-6.77-3.24-6.07-.73-12.15-1.41-18.17-2.6,8.22-.41,16.21,1.36,24.24,2.67,2.14.35,1,1.92.57,3.08Z"/><path d="M323.12,355.78l15.66,3.63C333.11,360.34,328.16,357.84,323.12,355.78Z"/><path d="M374.24,335.88c1.31-4.55,1.31-4.55-.94-5.3a3.85,3.85,0,0,1,4.22-1.52,3.06,3.06,0,0,1,2,1.3c.52,1-.41,1.46-1.24,1.61C375.91,332.37,375.56,334.6,374.24,335.88Z"/><path d="M371.78,339.2c7.79,1.12,10.32-.78,9.69-6.69,2.18,1.93,2.44,4,.89,5.76C379.73,341.2,376.39,341.49,371.78,339.2Z"/><path d="M345,362.35c.39,5.08-2.52,8.91-5.07,12.88Z"/><path d="M358,340c-2.94-.36-3.67-2.65-3.58-4.92.12-2.86,1.29-5.39,4.61-6l-.11-.1c-3.12,3.46-3.59,7.16-1,11.13Z"/><path d="M347,293a4.62,4.62,0,0,1-2.66-3.95c-.38-5.49-3.35-6.09-8.19-6-17,.39-31.87-5.68-45.09-16.1-.85-.67-2-1.2-1.82-2.69.3,0,.68-.16.82,0,14.3,12.68,31.34,17.66,50.09,17.68,2.9,0,4.64.46,5,3.82.24,2.42,1.3,4.76,2,7.14Z"/><path d="M270,168c-1.3,5.12-2.57,10.25-3.91,15.35-1.72,6.57-2.07,13.32-2.69,20-1-12.36.7-24.23,6.69-35.29Z"/><path d="M270.06,168.08a54,54,0,0,1,11.8-22.2l.37.36L270,168Z"/><path d="M281.86,145.87c3.25-5.45,6.75-10.7,12.51-14.11l-12.14,14.47Z"/><path d="M450.11,523c-9.21,0-18.42.07-27.63,0-3.08,0-6.15-.26-8.54-2.62,7.87,2.5,16,1.53,24,1.62C442,522.11,446.18,521.23,450.11,523Z"/><path d="M425.89,549.92c4.93-2.8,8.93-1.21,13.82-2-3.3,1.83-5.89.46-8.61,1.45,3.62,2.38,7.8,1.57,11.23,3.4C437.25,552.23,432.14,551.88,425.89,549.92Z"/><path d="M420.66,535.52c-5,2.89-10,1-15,.37C410.69,535.88,415.68,536.34,420.66,535.52Z"/><path d="M407.88,570.33a134.67,134.67,0,0,0,16.19,4.33c-6.59.18-12.71-1.92-18.83-4.38,7.41-3.59,14.6-1.48,21.77,1C421.08,570.61,415.21,568.67,407.88,570.33Z"/></g></g></svg>